<svg width="46" height="62" viewBox="0 0 46 62" fill="none" xmlns="http://www.w3.org/2000/svg">
<path fill-rule="evenodd" clip-rule="evenodd" d="M36.7953 41.4052C42.3844 37.2093 46 30.5269 46 23C46 10.2975 35.7025 0 23 0C10.2975 0 0 10.2975 0 23C0 34.7672 8.83681 44.4705 20.2363 45.8357L16.8672 61.3333L36.7953 41.4052Z" fill="#00AFA8"/>
<path d="M12.9814 16.4381C13.3836 16.6308 13.702 16.9072 13.9366 17.2675C14.1795 17.6278 14.301 18.0425 14.301 18.5117C14.301 19.2154 14.0539 19.8061 13.5595 20.2837C13.0652 20.7612 12.462 21 11.7498 21H7.95451V12.2029H11.4734C12.1604 12.2029 12.7427 12.4333 13.2202 12.8941C13.6978 13.3549 13.9366 13.9246 13.9366 14.6032C13.9366 15.3824 13.6182 15.994 12.9814 16.4381ZM11.4734 13.2962H9.12327V15.9856H11.4734C11.842 15.9856 12.152 15.8558 12.4033 15.596C12.6547 15.3363 12.7804 15.0179 12.7804 14.6409C12.7804 14.2723 12.6505 13.9581 12.3908 13.6984C12.1394 13.4303 11.8336 13.2962 11.4734 13.2962ZM11.7498 19.9066C12.1436 19.9066 12.4746 19.7684 12.7427 19.4919C13.0108 19.2154 13.1448 18.8761 13.1448 18.474C13.1448 18.0802 13.0066 17.7451 12.7301 17.4686C12.462 17.1921 12.1352 17.0539 11.7498 17.0539H9.12327V19.9066H11.7498ZM20.813 14.7163H21.9063V21H20.813V19.9192C20.2684 20.7487 19.4766 21.1634 18.4377 21.1634C17.558 21.1634 16.8082 20.845 16.1882 20.2083C15.5682 19.5631 15.2582 18.7798 15.2582 17.8582C15.2582 16.9366 15.5682 16.1574 16.1882 15.5206C16.8082 14.8755 17.558 14.553 18.4377 14.553C19.4766 14.553 20.2684 14.9677 20.813 15.7971V14.7163ZM18.576 20.1077C19.2127 20.1077 19.7447 19.8941 20.172 19.4668C20.5993 19.0311 20.813 18.4949 20.813 17.8582C20.813 17.2214 20.5993 16.6894 20.172 16.2621C19.7447 15.8264 19.2127 15.6086 18.576 15.6086C17.9476 15.6086 17.4198 15.8264 16.9925 16.2621C16.5652 16.6894 16.3516 17.2214 16.3516 17.8582C16.3516 18.4949 16.5652 19.0311 16.9925 19.4668C17.4198 19.8941 17.9476 20.1077 18.576 20.1077ZM23.5629 21V11.8258H24.6562V21H23.5629ZM29.7426 15.772H28.0711V19.1777C28.0711 19.4877 28.1297 19.7098 28.247 19.8438C28.3727 19.9695 28.5612 20.0365 28.8126 20.0449C29.0639 20.0449 29.3739 20.0365 29.7426 20.0197V21C28.7874 21.1257 28.0879 21.0503 27.6438 20.7738C27.1998 20.4889 26.9777 19.9569 26.9777 19.1777V15.772H25.7336V14.7163H26.9777V13.2836L28.0711 12.9569V14.7163H29.7426V15.772ZM31.59 13.5727C31.3805 13.5727 31.2046 13.5015 31.0621 13.3591C30.9197 13.2166 30.8485 13.0449 30.8485 12.8438C30.8485 12.6427 30.9197 12.471 31.0621 12.3285C31.2046 12.1777 31.3805 12.1023 31.59 12.1023C31.791 12.1023 31.9628 12.1777 32.1052 12.3285C32.2476 12.471 32.3189 12.6427 32.3189 12.8438C32.3189 13.0449 32.2476 13.2166 32.1052 13.3591C31.9628 13.5015 31.791 13.5727 31.59 13.5727ZM31.037 21V14.7163H32.1304V21H31.037ZM36.7517 21.1634C35.805 21.1634 35.0174 20.8492 34.389 20.2208C33.7607 19.5841 33.4465 18.7965 33.4465 17.8582C33.4465 16.9198 33.7607 16.1364 34.389 15.5081C35.0174 14.8713 35.805 14.553 36.7517 14.553C37.3717 14.553 37.9288 14.7038 38.4232 15.0054C38.9175 15.2986 39.2861 15.6966 39.5291 16.1993L38.6117 16.7271C38.4525 16.392 38.2053 16.1239 37.8702 15.9228C37.5434 15.7217 37.1706 15.6212 36.7517 15.6212C36.1233 15.6212 35.5955 15.8348 35.1682 16.2621C34.7493 16.6894 34.5398 17.2214 34.5398 17.8582C34.5398 18.4865 34.7493 19.0144 35.1682 19.4416C35.5955 19.8689 36.1233 20.0826 36.7517 20.0826C37.1706 20.0826 37.5476 19.9862 37.8828 19.7935C38.2179 19.5925 38.4734 19.3244 38.6494 18.9892L39.5794 19.5296C39.3113 20.0239 38.9259 20.4219 38.4232 20.7235C37.9205 21.0168 37.3633 21.1634 36.7517 21.1634ZM13.3741 25.2029C14.1868 25.2029 14.8613 25.4751 15.3975 26.0197C15.9421 26.5559 16.2143 27.2262 16.2143 28.0305C16.2143 28.8264 15.9421 29.4967 15.3975 30.0413C14.8613 30.5859 14.1868 30.8582 13.3741 30.8582H11.3508V34H10.182V25.2029H13.3741ZM13.3741 29.7648C13.8601 29.7648 14.2622 29.6014 14.5806 29.2747C14.899 28.9395 15.0582 28.5248 15.0582 28.0305C15.0582 27.5278 14.899 27.1131 14.5806 26.7863C14.2622 26.4596 13.8601 26.2962 13.3741 26.2962H11.3508V29.7648H13.3741ZM17.4817 34V24.8258H18.575V34H17.4817ZM25.4459 27.7163H26.5393V34H25.4459V32.9192C24.9014 33.7487 24.1096 34.1634 23.0707 34.1634C22.191 34.1634 21.4412 33.845 20.8212 33.2083C20.2012 32.5631 19.8912 31.7798 19.8912 30.8582C19.8912 29.9366 20.2012 29.1574 20.8212 28.5206C21.4412 27.8755 22.191 27.553 23.0707 27.553C24.1096 27.553 24.9014 27.9677 25.4459 28.7971V27.7163ZM23.209 33.1077C23.8457 33.1077 24.3777 32.8941 24.805 32.4668C25.2323 32.0311 25.4459 31.4949 25.4459 30.8582C25.4459 30.2214 25.2323 29.6894 24.805 29.2621C24.3777 28.8264 23.8457 28.6086 23.209 28.6086C22.5806 28.6086 22.0528 28.8264 21.6255 29.2621C21.1982 29.6894 20.9845 30.2214 20.9845 30.8582C20.9845 31.4949 21.1982 32.0311 21.6255 32.4668C22.0528 32.8941 22.5806 33.1077 23.209 33.1077ZM29.1261 29.4129C29.1261 29.6559 29.2476 29.8528 29.4906 30.0036C29.7335 30.146 30.0268 30.2633 30.3703 30.3555C30.7138 30.4393 31.0573 30.5398 31.4008 30.6571C31.7443 30.766 32.0376 30.9587 32.2805 31.2352C32.5235 31.5033 32.645 31.851 32.645 32.2783C32.645 32.848 32.423 33.3046 31.9789 33.6481C31.5432 33.9916 30.9819 34.1634 30.2949 34.1634C29.6833 34.1634 29.1596 34.0293 28.724 33.7612C28.2883 33.4931 27.9783 33.137 27.794 32.693L28.7365 32.1526C28.8371 32.4542 29.0256 32.693 29.3021 32.8689C29.5785 33.0449 29.9095 33.1329 30.2949 33.1329C30.6551 33.1329 30.9526 33.0658 31.1872 32.9318C31.4218 32.7893 31.5391 32.5715 31.5391 32.2783C31.5391 32.0353 31.4176 31.8426 31.1746 31.7002C30.9316 31.5494 30.6384 31.4321 30.2949 31.3483C29.9514 31.2561 29.6079 31.1514 29.2644 31.0341C28.9209 30.9168 28.6276 30.7241 28.3846 30.456C28.1417 30.1879 28.0202 29.8444 28.0202 29.4255C28.0202 28.8809 28.2296 28.4327 28.6486 28.0808C29.0759 27.7289 29.6079 27.553 30.2446 27.553C30.7557 27.553 31.2081 27.6702 31.6019 27.9048C32.004 28.131 32.3057 28.4494 32.5067 28.86L31.5893 29.3752C31.3631 28.839 30.9149 28.5709 30.2446 28.5709C29.9346 28.5709 29.6707 28.6463 29.4529 28.7971C29.235 28.9395 29.1261 29.1448 29.1261 29.4129ZM37.1124 28.772H35.4409V32.1777C35.4409 32.4877 35.4996 32.7098 35.6169 32.8438C35.7425 32.9695 35.931 33.0365 36.1824 33.0449C36.4337 33.0449 36.7437 33.0365 37.1124 33.0197V34C36.1573 34.1257 35.4577 34.0503 35.0136 33.7738C34.5696 33.4889 34.3476 32.9569 34.3476 32.1777V28.772H33.1034V27.7163H34.3476V26.2836L35.4409 25.9569V27.7163H37.1124V28.772Z" fill="white"/>
</svg>
