<svg width="45" height="45" viewBox="0 0 45 45" fill="none" xmlns="http://www.w3.org/2000/svg">
<path d="M10.4958 39.7775L14.4848 37.8813L17.2927 39.0444L18.7726 43.2058C18.8552 43.4381 19.0076 43.6391 19.2089 43.7812C19.4103 43.9234 19.6507 43.9998 19.8972 44H25.1028C25.3494 44 25.59 43.9236 25.7915 43.7815C25.993 43.6393 26.1455 43.4382 26.2282 43.2058L27.7081 39.0444L30.5159 37.8813L34.5049 39.7775C34.7277 39.8833 34.9778 39.9175 35.2208 39.8756C35.4638 39.8336 35.6879 39.7175 35.8624 39.5432L39.5432 35.8628C39.7177 35.6885 39.8338 35.4643 39.8758 35.2213C39.9177 34.9782 39.8834 34.7281 39.7775 34.5054L37.8813 30.5164L39.0444 27.7085L43.2058 26.2286C43.4383 26.1459 43.6394 25.9933 43.7816 25.7918C43.9238 25.5902 44.0001 25.3495 44 25.1028V19.8972C44 19.6505 43.9236 19.41 43.7815 19.2085C43.6393 19.007 43.4382 18.8545 43.2058 18.7718L39.0444 17.2919L37.8813 14.4841L39.7775 10.4951C39.8835 10.2723 39.9179 10.0221 39.8759 9.77893C39.834 9.53578 39.7178 9.31158 39.5432 9.13715L35.8628 5.45677C35.6885 5.28234 35.4643 5.16618 35.2213 5.12423C34.9782 5.08229 34.7281 5.11662 34.5054 5.22251L30.5164 7.11869L27.7085 5.9556L26.2282 1.79416C26.1455 1.56181 25.993 1.36074 25.7915 1.21855C25.59 1.07635 25.3494 1.00001 25.1028 1H19.8972C19.6505 1.00001 19.41 1.07635 19.2085 1.21855C19.007 1.36074 18.8545 1.56181 18.7718 1.79416L17.2919 5.9556L14.4841 7.11869L10.4958 5.22251C10.2729 5.11634 10.0226 5.08187 9.77928 5.12382C9.53597 5.16577 9.31164 5.28209 9.13715 5.45677L5.45677 9.13715C5.28209 9.31164 5.16577 9.53597 5.12382 9.77928C5.08187 10.0226 5.11634 10.2729 5.22251 10.4958L7.11869 14.4848L5.9556 17.2927L1.79416 18.7718C1.56181 18.8545 1.36074 19.007 1.21855 19.2085C1.07635 19.41 1.00001 19.6505 1 19.8972V25.1028C1.00001 25.3494 1.07635 25.59 1.21855 25.7915C1.36074 25.993 1.56181 26.1455 1.79416 26.2282L5.9556 27.7081L7.11869 30.5159L5.22251 34.5049C5.11652 34.7277 5.08213 34.9779 5.12408 35.2211C5.16602 35.4642 5.28225 35.6884 5.45677 35.8628L9.13715 39.5432C9.31171 39.7178 9.53603 39.834 9.77931 39.876C10.0226 39.9179 10.2729 39.8835 10.4958 39.7775ZM9.52893 30.0922L7.95943 26.3034C7.89546 26.149 7.79979 26.0098 7.6786 25.8947C7.55741 25.7796 7.4134 25.6913 7.2559 25.6354L3.38889 24.2599V20.7401L7.2559 19.3646C7.41337 19.3086 7.55734 19.2202 7.67848 19.1051C7.79962 18.99 7.89523 18.8507 7.95913 18.6963L9.52893 14.9078C9.59299 14.7533 9.6239 14.5871 9.61965 14.42C9.61541 14.2528 9.57611 14.0884 9.5043 13.9373L7.74249 10.2302L10.2308 7.74204L13.9379 9.50385C14.0889 9.57574 14.2534 9.61508 14.4205 9.61932C14.5877 9.62356 14.754 9.59262 14.9084 9.52848L18.6972 7.95898C18.8514 7.895 18.9905 7.79936 19.1055 7.67825C19.2204 7.55714 19.3087 7.41326 19.3646 7.2559L20.7401 3.38889H24.2599L25.6354 7.2559C25.6914 7.41337 25.7798 7.55734 25.8949 7.67848C26.01 7.79962 26.1493 7.89523 26.3037 7.95913L30.0922 9.52893C30.2466 9.59306 30.4129 9.62401 30.58 9.61977C30.7472 9.61552 30.9117 9.57618 31.0627 9.5043L34.7698 7.74249L37.2586 10.2313L35.4967 13.9384C35.4249 14.0894 35.3856 14.2538 35.3814 14.421C35.3771 14.5882 35.4081 14.7544 35.4721 14.9089L37.0416 18.6976C37.1056 18.8517 37.2012 18.9907 37.3222 19.1056C37.4431 19.2205 37.5869 19.3087 37.7441 19.3646L41.6111 20.7398V24.2596L37.7441 25.6354C37.5866 25.6914 37.4427 25.7798 37.3215 25.8949C37.2004 26.01 37.1048 26.1493 37.0409 26.3037L35.4711 30.0922C35.407 30.2467 35.3761 30.4129 35.3803 30.58C35.3846 30.7472 35.4239 30.9116 35.4957 31.0627L37.2575 34.7698L34.7687 37.2586L31.0616 35.4967C30.9106 35.4249 30.7462 35.3855 30.579 35.3813C30.4118 35.377 30.2456 35.408 30.0911 35.4721L26.3024 37.0416C26.1483 37.1056 26.0093 37.2012 25.8944 37.3222C25.7795 37.4432 25.6913 37.5869 25.6354 37.7441L24.2599 41.6111H20.7401L19.3646 37.7441C19.3086 37.5866 19.2202 37.4427 19.1051 37.3215C18.99 37.2004 18.8507 37.1048 18.6963 37.0409L14.9078 35.4711C14.7534 35.4069 14.5871 35.376 14.42 35.3802C14.2528 35.3845 14.0883 35.4238 13.9373 35.4957L10.2302 37.2575L7.74204 34.7692L9.50385 31.0621C9.57565 30.9112 9.61498 30.7469 9.6193 30.5798C9.62362 30.4127 9.59283 30.2466 9.52893 30.0922Z" fill="#00AFA8" stroke="white" stroke-width="0.6"/>
<path d="M22.5 33.25C24.6261 33.25 26.7045 32.6195 28.4724 31.4383C30.2402 30.2571 31.6181 28.5782 32.4317 26.6138C33.2453 24.6495 33.4582 22.4881 33.0434 20.4028C32.6286 18.3175 31.6048 16.402 30.1014 14.8986C28.598 13.3952 26.6825 12.3714 24.5972 11.9566C22.5119 11.5418 20.3505 11.7547 18.3862 12.5683C16.4218 13.3819 14.7429 14.7598 13.5617 16.5276C12.3805 18.2955 11.75 20.3739 11.75 22.5C11.7532 25.3501 12.8868 28.0825 14.9021 30.0979C16.9175 32.1132 19.6499 33.2468 22.5 33.25ZM22.5 14.1389C24.1537 14.1389 25.7702 14.6293 27.1452 15.548C28.5202 16.4667 29.5918 17.7726 30.2247 19.3003C30.8575 20.8281 31.0231 22.5093 30.7005 24.1312C30.3778 25.7531 29.5815 27.2429 28.4122 28.4122C27.2429 29.5815 25.7531 30.3778 24.1312 30.7005C22.5093 31.0231 20.8281 30.8575 19.3003 30.2247C17.7725 29.5918 16.4667 28.5202 15.548 27.1452C14.6293 25.7702 14.1389 24.1537 14.1389 22.5C14.1414 20.2833 15.0231 18.158 16.5906 16.5906C18.158 15.0231 20.2833 14.1414 22.5 14.1389Z" fill="#00AFA8" stroke="white" stroke-width="0.6"/>
</svg>
