<svg width="42" height="40" viewBox="0 0 42 40" fill="none" xmlns="http://www.w3.org/2000/svg">
<path d="M21.9307 32.8595L21.4653 33.7446L21.9307 32.8595C21.348 32.5532 20.652 32.5532 20.0693 32.8595L20.5347 33.7446L20.0693 32.8595L8.80907 38.7794L10.9596 26.2409C11.0709 25.5921 10.8558 24.9301 10.3844 24.4706L1.27466 15.5909L13.864 13.7615C14.5154 13.6669 15.0786 13.2577 15.3699 12.6674L21 1.25955L26.6301 12.6674C26.9214 13.2577 27.4846 13.6669 28.136 13.7615L40.7253 15.5908L31.6156 24.4706C31.1442 24.9301 30.9291 25.5921 31.0404 26.2409L33.1909 38.7794L21.9307 32.8595Z" fill="white" stroke="#00AFA8" stroke-width="2"/>
</svg>
