<svg width="36" height="42" viewBox="0 0 36 42" fill="none" xmlns="http://www.w3.org/2000/svg">
<path d="M34.2258 17.6129C34.2258 22.1426 31.3419 28.0199 27.6567 32.8474C25.8314 35.2386 23.8544 37.3122 22.026 38.777C21.1117 39.5094 20.2524 40.0753 19.4837 40.4541C18.705 40.8378 18.0788 41 17.6129 41C17.147 41 16.5208 40.8378 15.7421 40.4541C14.9734 40.0753 14.1141 39.5094 13.1998 38.777C11.3714 37.3122 9.39439 35.2386 7.56907 32.8474C3.88394 28.0199 1 22.1426 1 17.6129C1 8.43785 8.43785 1 17.6129 1C26.788 1 34.2258 8.43785 34.2258 17.6129Z" stroke="#00AFA8" stroke-width="2"/>
<circle cx="17.6134" cy="18.4962" r="7.12903" stroke="#00AFA8" stroke-width="2"/>
</svg>
