<svg width="21" height="18" viewBox="0 0 21 18" fill="none" xmlns="http://www.w3.org/2000/svg">
<path d="M0.364189 8.63986L5.13914 10.4088L7.00054 16.3589C7.08147 16.761 7.56706 16.8414 7.89079 16.6002L10.5615 14.4292C10.8043 14.1879 11.209 14.1879 11.5327 14.4292L16.3076 17.8867C16.6313 18.1279 17.1169 17.9671 17.1979 17.565L20.7588 0.67956C20.8397 0.277525 20.4351 -0.124507 20.0304 0.0363074L0.364189 7.59457C-0.121396 7.75538 -0.121396 8.47904 0.364189 8.63986ZM6.75776 9.52433L16.1457 3.81544C16.3076 3.73503 16.4695 3.97625 16.3076 4.05666L8.61916 11.2129C8.37637 11.4541 8.13357 11.7757 8.13357 12.1778L7.89079 14.1075C7.89079 14.3488 7.48613 14.4292 7.4052 14.1075L6.43401 10.5696C6.19122 10.1676 6.3531 9.68515 6.75776 9.52433Z" fill="#BABABA"/>
</svg>
