<svg width="23" height="19" viewBox="0 0 23 19" fill="none" xmlns="http://www.w3.org/2000/svg">
<path d="M22.9583 2.31409C22.1384 2.67948 21.2013 2.92308 20.2643 3.04487C21.2013 2.4359 22.0213 1.46154 22.3727 0.365388C21.4356 0.974362 20.4985 1.33975 19.3272 1.58334C18.5072 0.608978 17.2187 0 15.9303 0C13.3533 0 11.2449 2.19231 11.2449 4.87179C11.2449 5.23718 11.2449 5.60255 11.362 5.96794C7.4966 5.72435 3.98256 3.77564 1.63987 0.85256C1.28847 1.58333 1.0542 2.43589 1.0542 3.28846C1.0542 4.99358 1.87415 6.45513 3.16263 7.30769C2.34268 7.30769 1.63987 7.0641 1.0542 6.69872C1.0542 9.01282 2.69408 11.0833 4.8025 11.4487C4.4511 11.5705 3.98257 11.5705 3.51403 11.5705C3.16263 11.5705 2.92836 11.5705 2.57695 11.4487C3.16263 13.3974 4.91964 14.859 7.02806 14.859C5.38818 16.1987 3.3969 16.9295 1.17134 16.9295C0.819941 16.9295 0.468538 16.9295 0 16.8077C2.10842 18.1474 4.56824 19 7.26233 19C15.9303 19 20.6156 11.5705 20.6156 5.11538V4.5064C21.5527 4.14102 22.3727 3.28845 22.9583 2.31409Z" fill="#BABABA"/>
</svg>
