<svg width="23" height="24" viewBox="0 0 23 24" fill="none" xmlns="http://www.w3.org/2000/svg">
<path d="M17.147 0.569649C13.1261 -0.189883 8.95046 -0.189883 4.92952 0.569649C3.15103 0.949415 0.908579 3.07611 0.521949 4.74708C-0.173983 8.01306 -0.173983 11.355 0.521949 14.621C0.985904 16.292 3.22835 18.4187 4.92952 18.7984C5.00685 18.7984 5.08417 18.8744 5.08417 18.9503V23.7354C5.08417 23.9632 5.39348 24.1151 5.54813 23.8873L7.8679 21.5327C7.8679 21.5327 9.72372 19.6339 10.033 19.3301C10.033 19.3301 10.1104 19.2541 10.1877 19.2541C12.5075 19.3301 14.9046 19.1022 17.2243 18.7225C19.0028 18.3427 21.2453 16.216 21.6319 14.545C22.3278 11.2791 22.3278 7.93711 21.6319 4.67112C21.1679 3.07611 18.9255 0.949415 17.147 0.569649ZM17.2243 14.8489C16.8377 15.6084 16.3737 16.216 15.6005 16.5958C15.3685 16.6717 15.1365 16.7477 14.9046 16.8236C14.5953 16.7477 14.3633 16.6717 14.1313 16.5958C11.6569 15.6084 9.3371 14.2412 7.48127 12.2664C6.47604 11.1271 5.62545 9.83594 4.92952 8.46878C4.62022 7.7852 4.31091 7.17758 4.07894 6.494C3.84696 5.88637 4.23359 5.27875 4.62022 4.82303C5.00684 4.36731 5.4708 4.0635 6.01208 3.83564C6.39871 3.60778 6.78534 3.75968 7.09465 4.0635C7.71325 4.82303 8.33186 5.58256 8.79581 6.41805C9.10511 6.94972 9.02779 7.55734 8.48651 7.93711C8.33186 8.01306 8.25453 8.08902 8.09988 8.24092C8.02255 8.31688 7.8679 8.39283 7.79057 8.54474C7.63592 8.7726 7.63592 9.00046 7.71325 9.22832C8.33185 10.9752 9.49174 12.3424 11.2702 13.1019C11.5795 13.2538 11.8115 13.3298 12.1981 13.3298C12.7394 13.2538 12.9714 12.6462 13.358 12.3424C13.7447 12.0386 14.2086 12.0386 14.6726 12.2664C15.0592 12.4943 15.4458 12.7981 15.9098 13.1019C16.2964 13.4057 16.683 13.6336 17.0697 13.9374C17.3017 14.0893 17.379 14.4691 17.2243 14.8489ZM13.9766 9.15236C13.8993 9.15236 13.822 9.15236 13.9766 9.15236C13.6673 9.15236 13.59 9.00046 13.5127 8.7726C13.5127 8.62069 13.5127 8.39283 13.4354 8.24092C13.358 7.93711 13.2034 7.6333 12.8941 7.40544C12.7394 7.32949 12.5848 7.25353 12.4301 7.17758C12.1981 7.10162 12.0435 7.10163 11.8115 7.10163C11.5795 7.02567 11.5022 6.87377 11.5022 6.64591C11.5022 6.494 11.7342 6.34209 11.8888 6.34209C13.1261 6.41805 14.054 7.10162 14.2086 8.54474C14.2086 8.62069 14.2086 8.7726 14.2086 8.84855C14.2086 9.00046 14.1313 9.15236 13.9766 9.15236ZM13.2034 5.81042C12.8168 5.65851 12.4301 5.50661 11.9662 5.43066C11.8115 5.43066 11.5795 5.3547 11.4249 5.3547C11.1929 5.3547 11.0383 5.2028 11.1156 4.97494C11.1156 4.74708 11.2702 4.59517 11.5022 4.67112C12.2755 4.74708 12.9714 4.89898 13.6673 5.2028C15.0592 5.88637 15.8325 7.02567 16.0644 8.54474C16.0644 8.62069 16.0644 8.69664 16.0644 8.7726C16.0644 8.9245 16.0644 9.07641 16.0644 9.30427C16.0644 9.38022 16.0644 9.45618 16.0644 9.53213C15.9871 9.83594 15.4458 9.9119 15.3685 9.53213C15.3685 9.45618 15.2912 9.30427 15.2912 9.22832C15.2912 8.54474 15.1365 7.86116 14.8272 7.25353C14.3633 6.56995 13.822 6.11423 13.2034 5.81042ZM17.379 10.3676C17.147 10.3676 16.9923 10.1398 16.9923 9.9119C16.9923 9.45618 16.915 9.00045 16.8377 8.54474C16.5284 6.11423 14.5179 4.13945 12.1208 3.75968C11.7342 3.68373 11.3476 3.68373 11.0383 3.60778C10.8063 3.60778 10.497 3.60778 10.4197 3.30397C10.3423 3.07611 10.5743 2.84825 10.8063 2.84825C10.8836 2.84825 10.9609 2.84825 10.9609 2.84825C11.1156 2.84825 14.1313 2.9242 10.9609 2.84825C14.2086 2.9242 16.915 5.05089 17.4563 8.24092C17.5336 8.7726 17.611 9.30427 17.611 9.9119C17.7656 10.1398 17.611 10.3676 17.379 10.3676Z" fill="#BABABA"/>
</svg>
