<svg width="27" height="16" viewBox="0 0 27 16" fill="none" xmlns="http://www.w3.org/2000/svg">
<path d="M26.419 14.3562C26.419 14.2466 26.3129 14.2466 26.3129 14.137C25.8885 13.2603 24.9336 12.1644 23.6604 10.9589C23.0238 10.411 22.7055 9.9726 22.4932 9.75342C22.1749 9.31507 22.175 8.98631 22.2811 8.54795C22.3872 8.21919 22.8116 7.67123 23.5543 6.68493C23.9787 6.13698 24.1908 5.80822 24.5091 5.47946C26.1007 3.28767 26.8434 1.863 26.6312 1.20547L26.5251 1.09589C26.419 0.986302 26.3129 0.876716 26.1007 0.876716C25.8885 0.767127 25.5702 0.767127 25.2519 0.876716H21.2201C21.114 0.876716 21.1139 0.876716 20.9017 0.876716C20.7956 0.876716 20.6896 0.876716 20.6896 0.876716H20.5835H20.4774L20.3712 0.986295C20.2651 1.09588 20.2651 1.09588 20.2651 1.20547C19.8407 2.41095 19.3102 3.39725 18.7797 4.49314C18.4614 5.04109 18.1431 5.58904 17.8248 6.0274C17.5065 6.46576 17.2943 6.79452 17.0821 7.0137C16.8699 7.23287 16.6577 7.34246 16.5516 7.56164C16.4455 7.67123 16.2333 7.78083 16.2333 7.67124C16.1272 7.67124 16.0211 7.67123 16.0211 7.56164C15.915 7.45205 15.8089 7.34246 15.7028 7.23287C15.5967 7.12328 15.5967 6.9041 15.4906 6.68493C15.4906 6.46575 15.4906 6.24657 15.4906 6.13698C15.4906 6.02739 15.4906 5.69863 15.4906 5.47946C15.4906 5.15069 15.4906 4.9315 15.4906 4.82191C15.4906 4.49315 15.4906 4.0548 15.4906 3.61644C15.4906 3.17809 15.4906 2.84931 15.4906 2.63013C15.4906 2.41095 15.4906 2.08219 15.4906 1.86301C15.4906 1.53424 15.4906 1.31506 15.4906 1.20547C15.4906 1.09588 15.3846 0.87671 15.3846 0.76712C15.2785 0.657531 15.1723 0.547939 15.0662 0.43835C14.9601 0.328761 14.7479 0.328764 14.6418 0.219175C14.1113 0.109586 13.4747 0 12.732 0C11.0344 0 9.86733 0.109592 9.44293 0.328771C9.23073 0.43836 9.01853 0.547942 8.91243 0.76712C8.70023 0.986299 8.70022 1.09589 8.80632 1.09589C9.33683 1.20548 9.76123 1.42465 9.97343 1.75342L10.0795 1.97261C10.1856 2.0822 10.1856 2.30136 10.2917 2.63013C10.3978 2.9589 10.3978 3.28767 10.3978 3.72602C10.3978 4.38356 10.3978 5.0411 10.3978 5.47946C10.3978 6.0274 10.2917 6.35616 10.2917 6.68493C10.2917 7.01369 10.1856 7.23288 10.0795 7.34247C9.97344 7.56165 9.97343 7.67124 9.86733 7.67124C9.86733 7.67124 9.86732 7.78082 9.76122 7.78082C9.65512 7.78082 9.54903 7.89041 9.33683 7.89041C9.23073 7.89041 9.01853 7.78083 8.91243 7.67124C8.70023 7.56165 8.48803 7.34247 8.38193 7.12329C8.16973 6.90411 7.95752 6.57534 7.74532 6.13698C7.53312 5.69862 7.21481 5.26027 7.00261 4.60274L6.79043 4.16439C6.68433 3.94521 6.47213 3.50685 6.25992 2.9589C6.04772 2.41096 5.83552 1.97261 5.62332 1.42466C5.51722 1.20548 5.41113 1.09588 5.30503 0.986295H5.19892C5.19892 0.986295 5.09281 0.876716 4.98671 0.876716C4.88061 0.876716 4.77452 0.76712 4.66842 0.76712H0.848805C0.424404 0.76712 0.212207 0.876706 0.106107 0.986295L0 1.09589C0 1.09589 0 1.20548 0 1.31507C0 1.42466 6.47426e-06 1.53424 0.106107 1.75342C0.636608 3.06849 1.27321 4.38356 1.90981 5.69863C2.54641 6.90411 3.18302 8 3.60742 8.76713C4.13792 9.53425 4.56231 10.3014 5.09282 10.9589C5.62332 11.6164 5.94161 12.0548 6.04771 12.274C6.25991 12.4932 6.36601 12.6027 6.47211 12.7123L6.79043 13.0411C7.00263 13.2603 7.32092 13.589 7.74532 13.9178C8.16972 14.2466 8.70022 14.5753 9.23072 14.9041C9.76122 15.2329 10.3978 15.4521 11.0344 15.6712C11.7771 15.8904 12.4137 16 13.0503 15.8904H14.6418C14.9601 15.8904 15.1724 15.7808 15.3846 15.5617L15.4906 15.4521C15.4906 15.3425 15.5967 15.3425 15.5967 15.2329C15.5967 15.1233 15.5967 15.0137 15.5967 14.7945C15.5967 14.3562 15.5967 14.0274 15.7028 13.6986C15.8089 13.3699 15.809 13.1507 15.9151 12.9315C16.0212 12.7123 16.1272 12.6027 16.2333 12.4932C16.3394 12.3836 16.4456 12.274 16.4456 12.274H16.5516C16.7638 12.1644 17.0821 12.274 17.2943 12.4932C17.6126 12.7123 17.9309 13.0411 18.1431 13.3699C18.3553 13.6986 18.6737 14.0274 19.0981 14.4658C19.5225 14.9041 19.8408 15.2329 20.053 15.3425L20.3712 15.5617C20.5834 15.6712 20.7957 15.7808 21.114 15.8904C21.4323 16 21.6444 16 21.8566 16L25.4641 15.8904C25.7824 15.8904 26.1007 15.7808 26.3129 15.6712C26.5251 15.5617 26.6312 15.4521 26.6312 15.2329C26.6312 15.1233 26.6312 14.9041 26.6312 14.7945C26.419 14.5754 26.419 14.4658 26.419 14.3562Z" fill="#BABABA"/>
</svg>
