<svg width="22" height="21" viewBox="0 0 22 21" fill="none" xmlns="http://www.w3.org/2000/svg">
<path d="M18.6163 3.0625C16.5647 1.09375 13.8293 0 10.9418 0C4.93902 0 0.0759838 4.66667 0.0759838 10.4271C0.0759838 12.25 0.60788 14.0729 1.5197 15.6042L0 21L5.77486 19.5417C7.37055 20.3438 9.1182 20.7812 10.9418 20.7812C16.9447 20.7812 21.8077 16.1146 21.8077 10.3542C21.7317 7.65625 20.6679 5.03125 18.6163 3.0625ZM16.1848 14.1458C15.9568 14.7292 14.8931 15.3125 14.3612 15.3854C13.9053 15.4583 13.2974 15.4583 12.6895 15.3125C12.3096 15.1667 11.7777 15.0208 11.1698 14.7292C8.43433 13.6354 6.68668 11.0104 6.53471 10.7917C6.38274 10.6458 5.39494 9.40625 5.39494 8.09375C5.39494 6.78125 6.0788 6.19792 6.30675 5.90625C6.53471 5.61458 6.83865 5.61458 7.0666 5.61458C7.21857 5.61458 7.44653 5.61458 7.5985 5.61458C7.75047 5.61458 7.97842 5.54167 8.20638 6.05208C8.43433 6.5625 8.96623 7.875 9.04221 7.94792C9.1182 8.09375 9.1182 8.23958 9.04221 8.38542C8.96623 8.53125 8.89024 8.67708 8.73827 8.82292C8.5863 8.96875 8.43433 9.1875 8.35835 9.26042C8.20638 9.40625 8.05441 9.55208 8.20638 9.77083C8.35835 10.0625 8.89024 10.8646 9.72608 11.5937C10.7899 12.4687 11.6257 12.7604 11.9296 12.9063C12.2336 13.0521 12.3855 12.9792 12.5375 12.8333C12.6895 12.6875 13.2214 12.1042 13.3734 11.8125C13.5253 11.5208 13.7533 11.5938 13.9812 11.6667C14.2092 11.7396 15.5769 12.3958 15.8049 12.5417C16.1088 12.6875 16.2608 12.7604 16.3368 12.8333C16.4128 13.0521 16.4128 13.5625 16.1848 14.1458Z" fill="#BABABA"/>
</svg>
