<svg width="23" height="23" viewBox="0 0 23 23" fill="none" xmlns="http://www.w3.org/2000/svg">
<path d="M22.6296 10.7657L19.5423 7.68287C19.5006 7.64121 19.5006 7.58566 19.5006 7.55789C19.5145 7.53011 19.5284 7.48845 19.584 7.46068C20.0429 7.30793 20.4601 7.04408 20.8078 6.69691C21.4753 6.03034 21.8091 5.09992 21.7117 4.15562C21.6144 3.21132 21.1137 2.36423 20.3072 1.82264C19.2502 1.11442 17.8457 1.11441 16.7888 1.83653C16.2186 2.22536 15.7875 2.78083 15.565 3.41962C15.5372 3.48906 15.4816 3.51683 15.4537 3.51683C15.412 3.53072 15.3703 3.51683 15.3286 3.47517L12.2135 0.364528C11.7268 -0.121509 10.948 -0.121509 10.4752 0.364528L7.5965 3.23909C7.56868 3.32242 7.52696 3.32242 7.49915 3.32242C7.47134 3.32242 7.42962 3.29464 7.4018 3.25298C7.16539 2.69751 6.776 2.22536 6.27537 1.87819C5.21846 1.14219 3.79999 1.14219 2.74308 1.85042C1.9504 2.392 1.43586 3.23909 1.35242 4.1834C1.25507 5.1277 1.58883 6.04423 2.25635 6.71079C2.54839 7.00242 2.88215 7.2246 3.25763 7.37736C3.31325 7.40513 3.32716 7.44679 3.34107 7.47457C3.34107 7.50234 3.34107 7.55789 3.29935 7.59955L0.365049 10.5297C-0.121683 11.0157 -0.121683 11.7934 0.365049 12.2655L10.7533 22.6389C10.9897 22.875 11.3096 23 11.6294 23C11.9493 23 12.2552 22.875 12.5055 22.6389L15.4955 19.6533C15.8014 19.3478 15.9127 18.9312 15.8292 18.5146C15.7319 18.098 15.4259 17.7647 15.0226 17.6258C14.7584 17.5286 14.5498 17.4036 14.3412 17.1953C13.6598 16.5149 13.5207 15.5289 13.9935 14.7235C14.3273 14.1402 14.8697 13.7792 15.5233 13.6958C16.1769 13.6125 16.8166 13.8208 17.2755 14.293C17.4841 14.5013 17.6093 14.7096 17.7066 14.9873C17.8318 15.3762 18.1655 15.6817 18.5688 15.7789C18.986 15.8761 19.431 15.7511 19.737 15.4456L22.6713 12.5155C23.1163 12.0294 23.1163 11.2518 22.6296 10.7657ZM21.8647 11.7378L18.9304 14.6679C18.8748 14.7235 18.8052 14.7096 18.7913 14.7096C18.7357 14.6957 18.7218 14.654 18.7079 14.6402C18.5688 14.2097 18.3324 13.8347 18.0126 13.5153C17.3033 12.8071 16.3299 12.4877 15.3425 12.6127C14.369 12.7377 13.5068 13.307 13.0062 14.1819C12.2969 15.4039 12.5194 16.9592 13.5346 17.973C13.8545 18.2924 14.2161 18.5146 14.6333 18.6534C14.7028 18.6812 14.7306 18.7229 14.7306 18.7645C14.7445 18.8062 14.7306 18.8479 14.6889 18.8895L11.699 21.8752C11.6711 21.9029 11.6294 21.9168 11.6016 21.9168C11.5738 21.9168 11.5321 21.9168 11.5043 21.8752L1.12991 11.5017C1.07429 11.4462 1.07429 11.3629 1.12991 11.3073L4.06421 8.37721C4.35625 8.08559 4.48141 7.66898 4.39797 7.28015C4.31453 6.87743 4.05031 6.54415 3.67483 6.3914C3.43841 6.29419 3.21591 6.14143 3.02121 5.96091C2.59011 5.53042 2.3676 4.9194 2.42323 4.30838C2.47886 3.68347 2.81262 3.14189 3.34107 2.78083C3.67483 2.55864 4.07812 2.43366 4.4675 2.43366C4.8708 2.43366 5.288 2.55864 5.63566 2.79472C5.96942 3.03079 6.21974 3.3363 6.37271 3.69736C6.52568 4.0723 6.85944 4.33615 7.26274 4.41947C7.66603 4.50279 8.08323 4.37781 8.37527 4.08619L11.2818 1.16996C11.3096 1.14219 11.3513 1.1283 11.3791 1.1283C11.4069 1.1283 11.4486 1.1283 11.4764 1.16996L14.5915 4.2806C14.8975 4.58611 15.3147 4.69721 15.7319 4.61389C16.1491 4.51668 16.4828 4.21117 16.6219 3.80845C16.761 3.39185 17.0391 3.03079 17.4285 2.76694C18.1099 2.29479 19.0277 2.29479 19.7092 2.75306C20.2376 3.11411 20.5714 3.6557 20.627 4.2806C20.6826 4.89162 20.474 5.50264 20.029 5.93313C19.8065 6.15532 19.5284 6.32196 19.2363 6.43306C18.833 6.57192 18.541 6.89132 18.4437 7.30792C18.3463 7.72453 18.4715 8.15502 18.7774 8.46053L21.8647 11.5434C21.9203 11.5989 21.9203 11.6823 21.8647 11.7378Z" fill="#00AFA8"/>
</svg>
