<svg width="26" height="19" viewBox="0 0 26 19" fill="none" xmlns="http://www.w3.org/2000/svg">
<path d="M25.4971 11.9794L24.4562 2.47731C24.4394 2.33119 24.391 2.19049 24.3143 2.065C24.2376 1.9395 24.1345 1.83223 24.0121 1.75065C23.8897 1.66907 23.751 1.61513 23.6057 1.59259C23.4604 1.57006 23.3119 1.57947 23.1705 1.62017L19.497 2.68955L17.5419 1.6569C16.6118 1.16408 15.5624 0.941144 14.5123 1.01327C13.4622 1.08539 12.4531 1.44971 11.5991 2.06506C11.3674 2.2419 11.1553 2.44305 10.9664 2.66506L7.74602 2.9018L3.33377 1.62017C3.19275 1.5779 3.04406 1.56769 2.89858 1.59029C2.7531 1.61289 2.61452 1.66772 2.49296 1.75078C2.37046 1.83227 2.26719 1.93948 2.19035 2.06496C2.11352 2.19043 2.06496 2.33115 2.04806 2.47731L1.00724 11.9794C0.976409 12.2616 1.04464 12.5459 1.20025 12.7834C1.35587 13.0209 1.5892 13.1969 1.8603 13.2814L3.27663 13.7263C3.39509 13.7655 3.51922 13.7848 3.64398 13.7834C3.91014 13.7841 4.16927 13.698 4.38211 13.5381C4.59496 13.3783 4.74993 13.1535 4.82357 12.8977L4.9052 12.6161L11.946 18.4365C12.2357 18.6881 12.6033 18.8323 12.9868 18.8447C13.3392 18.8541 13.683 18.7352 13.9542 18.51C14.2313 18.2711 14.4066 17.9352 14.444 17.5712C14.646 17.7355 14.8882 17.8429 15.1456 17.8822C15.403 17.9215 15.6662 17.8913 15.908 17.7947C16.1498 17.6982 16.3615 17.5388 16.521 17.333C16.6805 17.1272 16.7822 16.8825 16.8154 16.6243C17.0315 16.777 17.2848 16.8687 17.5485 16.8897C17.8123 16.9108 18.0769 16.8604 18.3145 16.7439C18.5521 16.6274 18.754 16.4491 18.8988 16.2277C19.0437 16.0062 19.1263 15.7498 19.1379 15.4855C19.3038 15.5469 19.4793 15.5787 19.6562 15.5794C19.8548 15.5797 20.0515 15.5402 20.2345 15.4631C20.4175 15.3859 20.5831 15.2728 20.7215 15.1304C20.9271 14.918 21.0635 14.6484 21.1131 14.357C21.1626 14.0656 21.1229 13.7661 20.9991 13.4977L21.6766 12.9263C21.7508 13.1806 21.9055 13.4041 22.1175 13.563C22.3294 13.722 22.5872 13.8079 22.8522 13.8079C22.9769 13.8089 23.101 13.7896 23.2195 13.7508L24.6358 13.3059C24.913 13.2223 25.1517 13.0432 25.3093 12.8003C25.467 12.5575 25.5335 12.2666 25.4971 11.9794ZM11.9542 2.59159C12.7153 2.03937 13.616 1.71181 14.5541 1.64614C15.4921 1.58048 16.4297 1.77936 17.2603 2.22017L18.8195 3.03649L21.5011 12.2651L20.6399 12.9671L14.9746 7.12221C15.1806 7.10097 15.38 7.037 15.5599 6.93439C15.7398 6.83179 15.8963 6.6928 16.0195 6.52629C16.0705 6.46203 16.0943 6.38039 16.0859 6.29878C16.0776 6.21718 16.0376 6.14209 15.9746 6.08956C15.9427 6.06403 15.9061 6.04504 15.8669 6.03368C15.8277 6.02232 15.7866 6.01882 15.7461 6.02337C15.7055 6.02792 15.6662 6.04043 15.6305 6.0602C15.5948 6.07996 15.5633 6.10658 15.5379 6.13854C15.4323 6.28752 15.2876 6.40447 15.1198 6.47649C14.952 6.54851 14.7676 6.5728 14.5868 6.5467C14.2557 6.55498 13.9308 6.45621 13.6603 6.26507L13.4236 6.09364L12.1991 7.57935C11.8231 7.98685 11.3317 8.27001 10.7906 8.39106C10.2495 8.51212 9.68434 8.46532 9.17051 8.2569L8.92153 8.15078C8.87492 8.13296 8.83282 8.10505 8.79825 8.06907C8.76368 8.03308 8.73748 7.9899 8.72153 7.94262C8.70653 7.89429 8.70241 7.84325 8.70947 7.79315C8.71652 7.74304 8.73458 7.69512 8.76235 7.65282L10.7787 3.99976C11.0839 3.46437 11.4819 2.98756 11.9542 2.59159ZM4.23582 12.7263C4.21385 12.8046 4.17609 12.8776 4.12484 12.9408C4.0736 13.004 4.00996 13.056 3.93786 13.0936C3.86655 13.132 3.78829 13.1557 3.70769 13.1634C3.62709 13.1711 3.54576 13.1627 3.46847 13.1385L2.05214 12.6936C1.92039 12.6481 1.80812 12.559 1.7339 12.4409C1.65969 12.3229 1.62796 12.1831 1.64398 12.0447L2.66439 2.5467C2.67126 2.48969 2.69008 2.43478 2.71962 2.38555C2.74916 2.33632 2.78875 2.29387 2.83581 2.26098C2.88383 2.23052 2.93768 2.21043 2.99391 2.202C3.05014 2.19357 3.10751 2.19697 3.16235 2.212L6.97459 3.32221L4.23582 12.7263ZM20.2766 14.6732C20.1985 14.7561 20.1046 14.8226 20.0005 14.8689C19.8965 14.9153 19.7842 14.9405 19.6704 14.9431C19.5565 14.9458 19.4432 14.9258 19.3371 14.8844C19.231 14.843 19.1341 14.7809 19.0522 14.7018L15.595 11.4365C15.5336 11.4007 15.4618 11.3871 15.3916 11.3979C15.3214 11.4087 15.257 11.4433 15.2092 11.4958C15.1615 11.5484 15.1332 11.6158 15.1291 11.6867C15.125 11.7576 15.1454 11.8278 15.1868 11.8855L18.2726 14.8079C18.4317 14.9703 18.5198 15.1892 18.5175 15.4166C18.5152 15.6439 18.4227 15.861 18.2603 16.0202C18.0979 16.1793 17.879 16.2674 17.6517 16.2651C17.4243 16.2628 17.2072 16.1703 17.0481 16.0079L13.8277 12.7426C13.7696 12.685 13.6911 12.6527 13.6093 12.6527C13.5275 12.6527 13.449 12.685 13.3909 12.7426C13.3331 12.8014 13.3007 12.8806 13.3007 12.963C13.3007 13.0455 13.3331 13.1247 13.3909 13.1834L15.9583 15.7671C15.9569 15.7766 15.9569 15.7862 15.9583 15.7957C16.0487 15.8818 16.1189 15.9868 16.1641 16.1032C16.2092 16.2197 16.2282 16.3446 16.2195 16.4692C16.2133 16.6377 16.1575 16.8006 16.0591 16.9376C15.9607 17.0746 15.8241 17.1795 15.6663 17.2392C15.5086 17.2989 15.3368 17.3107 15.1723 17.2732C15.0079 17.2357 14.8582 17.1505 14.7419 17.0283L11.5909 14.0202C11.5624 13.9912 11.5284 13.9681 11.491 13.9524C11.4535 13.9367 11.4132 13.9286 11.3726 13.9286C11.3319 13.9286 11.2916 13.9367 11.2542 13.9524C11.2167 13.9681 11.1827 13.9912 11.1542 14.0202C11.0966 14.0783 11.0643 14.1567 11.0643 14.2385C11.0643 14.3203 11.0966 14.3988 11.1542 14.4569L13.5746 16.7345C13.5725 16.7439 13.5725 16.7536 13.5746 16.763C13.6552 16.8469 13.7181 16.9461 13.7594 17.0548C13.8008 17.1635 13.8199 17.2795 13.8154 17.3957C13.8097 17.512 13.7803 17.6259 13.729 17.7304C13.6778 17.835 13.6058 17.928 13.5175 18.0038C13.3646 18.1428 13.1648 18.2186 12.9583 18.2161C12.7222 18.2004 12.4988 18.1038 12.3256 17.9426L5.08888 11.9794L7.53786 3.55894L10.4317 3.3467C10.3419 3.47731 10.2644 3.59976 10.1991 3.71404L8.18684 7.36303C8.11849 7.48282 8.0769 7.61599 8.06492 7.75338C8.05295 7.89078 8.07087 8.02913 8.11745 8.15894C8.16671 8.28606 8.24239 8.40127 8.33949 8.49696C8.43659 8.59266 8.55289 8.66665 8.68072 8.71405L8.9297 8.82017C9.56129 9.07367 10.2551 9.12861 10.9188 8.97765C11.5824 8.8267 12.1842 8.47703 12.644 7.97527L13.5419 6.9018C13.7173 6.99005 13.9041 7.05325 14.097 7.08956C14.0982 7.09768 14.0982 7.10592 14.097 7.11405L20.2807 13.4855C20.3114 13.518 20.3388 13.5536 20.3624 13.5916C20.4758 13.7538 20.5293 13.9505 20.5136 14.1478C20.498 14.3451 20.4142 14.5309 20.2766 14.6732ZM24.4522 12.6936L23.0481 13.1385C22.9701 13.1628 22.8881 13.1713 22.8068 13.1636C22.7256 13.1559 22.6466 13.1321 22.5746 13.0936C22.5035 13.0552 22.4409 13.0028 22.3904 12.9397C22.34 12.8767 22.3026 12.8041 22.2807 12.7263L19.5419 3.33853L23.3542 2.22833C23.4088 2.21167 23.4665 2.20742 23.523 2.2159C23.5795 2.22437 23.6334 2.24535 23.6807 2.27731C23.7278 2.3102 23.7674 2.35264 23.7969 2.40188C23.8265 2.45111 23.8453 2.50602 23.8522 2.56302L24.8889 12.061C24.9001 12.2006 24.8627 12.3398 24.7832 12.4551C24.7036 12.5703 24.5867 12.6546 24.4522 12.6936Z" fill="#00AFA8" stroke="#00AFA8" stroke-width="0.3"/>
</svg>
