<svg width="21" height="17" viewBox="0 0 21 17" fill="none" xmlns="http://www.w3.org/2000/svg">
<path d="M18.0706 3.38837C18.0706 3.50485 18.0243 3.61656 17.9419 3.69893C17.8596 3.78129 17.7479 3.82756 17.6314 3.82756H8.01307C7.89659 3.82756 7.78488 3.78129 7.70252 3.69893C7.62015 3.61656 7.57388 3.50485 7.57388 3.38837C7.57388 3.27189 7.62015 3.16018 7.70252 3.07782C7.78488 2.99545 7.89659 2.94918 8.01307 2.94918H17.6314C17.7479 2.94918 17.8596 2.99545 17.9419 3.07782C18.0243 3.16018 18.0706 3.27189 18.0706 3.38837ZM8.01307 6.21897H10.9074C11.0238 6.21897 11.1355 6.1727 11.2179 6.09033C11.3003 6.00797 11.3465 5.89626 11.3465 5.77978C11.3465 5.66329 11.3003 5.55158 11.2179 5.46922C11.1355 5.38686 11.0238 5.34058 10.9074 5.34058H8.01307C7.89659 5.34058 7.78488 5.38686 7.70252 5.46922C7.62015 5.55158 7.57388 5.66329 7.57388 5.77978C7.57388 5.89626 7.62015 6.00797 7.70252 6.09033C7.78488 6.1727 7.89659 6.21897 8.01307 6.21897ZM8.01307 8.60379H10.9074C11.0238 8.60379 11.1355 8.55751 11.2179 8.47515C11.3003 8.39278 11.3465 8.28107 11.3465 8.16459C11.3465 8.04811 11.3003 7.9364 11.2179 7.85404C11.1355 7.77167 11.0238 7.7254 10.9074 7.7254H8.01307C7.89659 7.7254 7.78488 7.77167 7.70252 7.85404C7.62015 7.9364 7.57388 8.04811 7.57388 8.16459C7.57388 8.28107 7.62015 8.39278 7.70252 8.47515C7.78488 8.55751 7.89659 8.60379 8.01307 8.60379ZM8.01307 10.9886H10.9074C11.0238 10.9886 11.1355 10.9423 11.2179 10.86C11.3003 10.7776 11.3465 10.6659 11.3465 10.5494C11.3465 10.4329 11.3003 10.3212 11.2179 10.2389C11.1355 10.1565 11.0238 10.1102 10.9074 10.1102H8.01307C7.89659 10.1102 7.78488 10.1565 7.70252 10.2389C7.62015 10.3212 7.57388 10.4329 7.57388 10.5494C7.57388 10.6659 7.62015 10.7776 7.70252 10.86C7.78488 10.9423 7.89659 10.9886 8.01307 10.9886ZM17.6314 12.495H8.01307C7.89659 12.495 7.78488 12.5413 7.70252 12.6237C7.62015 12.706 7.57388 12.8177 7.57388 12.9342C7.57388 13.0507 7.62015 13.1624 7.70252 13.2448C7.78488 13.3271 7.89659 13.3734 8.01307 13.3734H17.6314C17.7479 13.3734 17.8596 13.3271 17.9419 13.2448C18.0243 13.1624 18.0706 13.0507 18.0706 12.9342C18.0706 12.8177 18.0243 12.706 17.9419 12.6237C17.8596 12.5413 17.7479 12.495 17.6314 12.495ZM18.0706 5.77758V10.545C18.0706 10.6615 18.0243 10.7732 17.9419 10.8556C17.8596 10.9379 17.7479 10.9842 17.6314 10.9842H13.3559C13.2394 10.9842 13.1277 10.9379 13.0453 10.8556C12.9629 10.7732 12.9167 10.6615 12.9167 10.545V5.77978C12.9167 5.66329 12.9629 5.55158 13.0453 5.46922C13.1277 5.38686 13.2394 5.34058 13.3559 5.34058H17.6314C17.7479 5.34058 17.8596 5.38686 17.9419 5.46922C18.0243 5.55158 18.0706 5.66329 18.0706 5.77978V5.77758ZM17.1922 6.21677H13.795V10.1058H17.1922V6.21677ZM0 13.6303V5.06609C1.7357e-09 4.94961 0.0462719 4.8379 0.128637 4.75553C0.211001 4.67317 0.322711 4.62689 0.439193 4.62689C0.555674 4.62689 0.667384 4.67317 0.749749 4.75553C0.832113 4.8379 0.878385 4.94961 0.878385 5.06609V13.6303C0.895052 14.1181 1.10051 14.5802 1.45142 14.9193C1.80232 15.2585 2.27124 15.448 2.75923 15.448C3.24722 15.448 3.71613 15.2585 4.06704 14.9193C4.41794 14.5802 4.6234 14.1181 4.64007 13.6303V0.439193C4.64007 0.322712 4.68634 0.211001 4.76871 0.128636C4.85107 0.0462718 4.96278 0 5.07926 0H20.5608C20.6773 0 20.789 0.0462718 20.8714 0.128636C20.9537 0.211001 21 0.322712 21 0.439193V14.0212C21.0003 14.3328 20.9391 14.6414 20.8198 14.9293C20.7006 15.2172 20.5256 15.4787 20.3051 15.6989C20.0846 15.919 19.8227 16.0934 19.5346 16.2122C19.2465 16.3309 18.9378 16.3915 18.6262 16.3907H2.76033C2.02842 16.3901 1.32666 16.0991 0.809123 15.5815C0.291588 15.064 0.00058157 14.3623 0 13.6303ZM4.77622 15.5123H18.6262C18.8217 15.5123 19.0153 15.4738 19.1959 15.399C19.3766 15.3241 19.5407 15.2145 19.6789 15.0762C19.8172 14.938 19.9269 14.7738 20.0017 14.5932C20.0765 14.4125 20.115 14.2189 20.115 14.0234V0.878385H5.52065V13.6303C5.52141 14.3292 5.25602 15.0021 4.77842 15.5123H4.77622ZM2.32113 5.15832V13.6238C2.32113 13.7402 2.36741 13.8519 2.44977 13.9343C2.53213 14.0167 2.64385 14.063 2.76033 14.063C2.87681 14.063 2.98852 14.0167 3.07088 13.9343C3.15325 13.8519 3.19952 13.7402 3.19952 13.6238V5.15832C3.19952 5.04184 3.15325 4.93013 3.07088 4.84776C2.98852 4.7654 2.87681 4.71913 2.76033 4.71913C2.64385 4.71913 2.53213 4.7654 2.44977 4.84776C2.36741 4.93013 2.32113 5.04184 2.32113 5.15832Z" fill="#00AFA8"/>
</svg>
