<svg width="180" height="34" viewBox="0 0 180 34" fill="none" xmlns="http://www.w3.org/2000/svg">
<path d="M10.0358 8.01673C12.5696 8.01673 14.7163 8.90827 16.476 10.6913C18.259 12.451 19.1506 14.6212 19.1506 17.2019C19.1506 19.7827 18.259 21.9646 16.476 23.7477C14.7163 25.5073 12.5696 26.3871 10.0358 26.3871C8.37 26.3871 6.86846 25.9883 5.53115 25.1906C4.21731 24.3929 3.19673 23.3019 2.46942 21.9177V26H0.709808V1.36538H2.46942V12.4862C3.19673 11.1019 4.21731 10.011 5.53115 9.21327C6.86846 8.41558 8.37 8.01673 10.0358 8.01673ZM4.61615 22.516C6.07077 23.9706 7.84212 24.6979 9.93019 24.6979C12.0183 24.6979 13.7779 23.9706 15.209 22.516C16.6637 21.0613 17.391 19.29 17.391 17.2019C17.391 15.1138 16.6637 13.3425 15.209 11.8879C13.7779 10.4333 12.0183 9.70596 9.93019 9.70596C7.84212 9.70596 6.07077 10.4333 4.61615 11.8879C3.185 13.3425 2.46942 15.1138 2.46942 17.2019C2.46942 19.29 3.185 21.0613 4.61615 22.516ZM38.877 8.40385H40.6718V26H38.877V22.0233C38.1262 23.384 37.0939 24.4515 35.78 25.2258C34.4662 26 32.9764 26.3871 31.3106 26.3871C28.8002 26.3871 26.6535 25.5073 24.8704 23.7477C23.0873 21.9646 22.1958 19.7827 22.1958 17.2019C22.1958 14.6212 23.0873 12.451 24.8704 10.6913C26.6535 8.90827 28.8002 8.01673 31.3106 8.01673C32.9764 8.01673 34.4662 8.40385 35.78 9.17808C37.0939 9.95231 38.1262 11.0198 38.877 12.3806V8.40385ZM26.1373 22.516C27.592 23.9706 29.3633 24.6979 31.4514 24.6979C33.5395 24.6979 35.2991 23.9706 36.7302 22.516C38.1614 21.0613 38.877 19.29 38.877 17.2019C38.877 15.1138 38.1614 13.3425 36.7302 11.8879C35.2991 10.4333 33.5395 9.70596 31.4514 9.70596C29.3633 9.70596 27.592 10.4333 26.1373 11.8879C24.7062 13.3425 23.9906 15.1138 23.9906 17.2019C23.9906 19.29 24.7062 21.0613 26.1373 22.516ZM46.0749 26V0.309616H47.8345V26H46.0749ZM62.2669 10.1283H57.0233V21.5658C57.0233 22.5746 57.211 23.3019 57.5863 23.7477C57.9617 24.1935 58.5365 24.4515 59.3108 24.5219C60.085 24.5688 61.0704 24.5337 62.2669 24.4163V26C59.8973 26.3519 58.126 26.1877 56.9529 25.5073C55.8033 24.8269 55.2285 23.5131 55.2285 21.5658V10.1283H51.3573V8.40385H55.2285V4.00481L57.0233 3.47692V8.40385H62.2669V10.1283ZM68.3544 3.75846C68.0728 4.01654 67.7444 4.14558 67.369 4.14558C66.9936 4.14558 66.6651 4.01654 66.3836 3.75846C66.1021 3.47692 65.9613 3.13673 65.9613 2.73788C65.9613 2.3625 66.1021 2.04577 66.3836 1.78769C66.6651 1.50615 66.9936 1.36538 67.369 1.36538C67.7444 1.36538 68.0728 1.50615 68.3544 1.78769C68.6359 2.04577 68.7767 2.3625 68.7767 2.73788C68.7767 3.13673 68.6359 3.47692 68.3544 3.75846ZM66.4892 26V8.40385H68.2488V26H66.4892ZM81.731 26.3871C79.0799 26.3871 76.8745 25.5073 75.1149 23.7477C73.3553 21.9881 72.4754 19.8062 72.4754 17.2019C72.4754 14.5977 73.3553 12.4158 75.1149 10.6562C76.8745 8.89654 79.0799 8.01673 81.731 8.01673C83.4437 8.01673 84.9922 8.42731 86.3764 9.24846C87.7606 10.0462 88.7695 11.1371 89.4029 12.5213L87.9601 13.366C87.4439 12.2398 86.6228 11.3483 85.4966 10.6913C84.3939 10.0344 83.1387 9.70596 81.731 9.70596C79.6195 9.70596 77.8481 10.4333 76.417 11.8879C74.9858 13.319 74.2703 15.0904 74.2703 17.2019C74.2703 19.3135 74.9858 21.0965 76.417 22.5512C77.8481 23.9823 79.6195 24.6979 81.731 24.6979C83.1387 24.6979 84.3939 24.3694 85.4966 23.7125C86.6228 23.0556 87.4791 22.164 88.0656 21.0379L89.5437 21.9177C88.8399 23.2785 87.7841 24.3694 86.3764 25.1906C84.9922 25.9883 83.4437 26.3871 81.731 26.3871ZM112.107 8.01673C114.641 8.01673 116.788 8.90827 118.547 10.6913C120.33 12.451 121.222 14.6212 121.222 17.2019C121.222 19.7827 120.33 21.9646 118.547 23.7477C116.788 25.5073 114.641 26.3871 112.107 26.3871C110.441 26.3871 108.94 25.9883 107.603 25.1906C106.289 24.3929 105.268 23.3019 104.541 21.9177V33.0385H102.781V8.40385H104.541V12.4862C105.268 11.1019 106.289 10.011 107.603 9.21327C108.94 8.41558 110.441 8.01673 112.107 8.01673ZM106.688 22.516C108.142 23.9706 109.914 24.6979 112.002 24.6979C114.09 24.6979 115.849 23.9706 117.28 22.516C118.735 21.0613 119.462 19.29 119.462 17.2019C119.462 15.1138 118.735 13.3425 117.28 11.8879C115.849 10.4333 114.09 9.70596 112.002 9.70596C109.914 9.70596 108.142 10.4333 106.688 11.8879C105.256 13.3425 104.541 15.1138 104.541 17.2019C104.541 19.29 105.256 21.0613 106.688 22.516ZM125.464 26V0.309616H127.223V26H125.464ZM148.131 8.40385H149.926V26H148.131V22.0233C147.38 23.384 146.348 24.4515 145.034 25.2258C143.72 26 142.231 26.3871 140.565 26.3871C138.054 26.3871 135.908 25.5073 134.125 23.7477C132.342 21.9646 131.45 19.7827 131.45 17.2019C131.45 14.6212 132.342 12.451 134.125 10.6913C135.908 8.90827 138.054 8.01673 140.565 8.01673C142.231 8.01673 143.72 8.40385 145.034 9.17808C146.348 9.95231 147.38 11.0198 148.131 12.3806V8.40385ZM135.392 22.516C136.846 23.9706 138.618 24.6979 140.706 24.6979C142.794 24.6979 144.553 23.9706 145.984 22.516C147.416 21.0613 148.131 19.29 148.131 17.2019C148.131 15.1138 147.416 13.3425 145.984 11.8879C144.553 10.4333 142.794 9.70596 140.706 9.70596C138.618 9.70596 136.846 10.4333 135.392 11.8879C133.96 13.3425 133.245 15.1138 133.245 17.2019C133.245 19.29 133.96 21.0613 135.392 22.516ZM156.526 13.014C156.526 13.8821 156.889 14.5625 157.617 15.0552C158.344 15.5479 159.235 15.9233 160.291 16.1813C161.347 16.416 162.391 16.6858 163.423 16.9908C164.479 17.2958 165.371 17.8119 166.098 18.5392C166.825 19.2431 167.189 20.1933 167.189 21.3898C167.189 22.8444 166.602 24.041 165.429 24.9794C164.28 25.9179 162.766 26.3871 160.89 26.3871C159.2 26.3871 157.769 26.0352 156.596 25.3313C155.446 24.604 154.649 23.6538 154.203 22.4808L155.716 21.601C156.045 22.5629 156.655 23.3254 157.546 23.8885C158.461 24.4281 159.576 24.6979 160.89 24.6979C162.203 24.6979 163.283 24.4163 164.127 23.8533C164.995 23.2667 165.429 22.4456 165.429 21.3898C165.429 20.5217 165.066 19.8296 164.338 19.3135C163.611 18.7973 162.72 18.4219 161.664 18.1873C160.608 17.9292 159.552 17.6477 158.496 17.3427C157.464 17.0377 156.584 16.5333 155.857 15.8294C155.13 15.1256 154.766 14.1871 154.766 13.014C154.766 11.6063 155.317 10.4215 156.42 9.45961C157.546 8.49769 158.989 8.01673 160.749 8.01673C162.156 8.01673 163.376 8.33346 164.409 8.96692C165.465 9.60038 166.239 10.4567 166.731 11.536L165.253 12.3806C164.901 11.5125 164.315 10.8556 163.494 10.4098C162.673 9.94058 161.758 9.70596 160.749 9.70596C159.552 9.70596 158.543 10.011 157.722 10.621C156.925 11.2075 156.526 12.0052 156.526 13.014ZM179.769 10.1283H174.526V21.5658C174.526 22.5746 174.713 23.3019 175.089 23.7477C175.464 24.1935 176.039 24.4515 176.813 24.5219C177.587 24.5688 178.573 24.5337 179.769 24.4163V26C177.4 26.3519 175.628 26.1877 174.455 25.5073C173.306 24.8269 172.731 23.5131 172.731 21.5658V10.1283H168.86V8.40385H172.731V4.00481L174.526 3.47692V8.40385H179.769V10.1283Z" fill="#2F3838"/>
</svg>
