<svg width="93" height="10" viewBox="0 0 93 10" fill="none" xmlns="http://www.w3.org/2000/svg">
<path opacity="0.3" fill-rule="evenodd" clip-rule="evenodd" d="M6.3855 4.52802L4.88133 8.18027L1.73117 0.0639763H0L4.15763 9.99946H5.51986L7.40716 5.54954L9.28027 9.99946H10.6425L14.8001 0.0639763H13.0544L9.9188 8.18027L8.41463 4.52802L10.1316 0.105968H8.64175L7.39297 3.47849L6.15838 0.105968H4.65492L6.3855 4.52802ZM34.8008 5.82233C34.4598 5.37579 33.9781 5.05346 33.4314 4.90585C33.8818 4.71217 34.2574 4.38108 34.5028 3.96126C34.7501 3.54801 34.8798 3.07666 34.8782 2.59684C34.8773 2.28436 34.8221 1.97434 34.715 1.68025C34.6107 1.38516 34.4547 1.11047 34.2539 0.868699C34.054 0.629802 33.808 0.432406 33.5302 0.287948C33.2372 0.136592 32.9107 0.0596146 32.58 0.0639763H27.3865V9.99946H32.1969C32.6057 10.002 33.0124 9.94301 33.403 9.82454C33.7607 9.71864 34.0952 9.54777 34.3893 9.32072C34.6674 9.10268 34.8948 8.8283 35.0562 8.51611C35.2257 8.18189 35.3109 7.81225 35.3045 7.4386C35.322 6.85979 35.1449 6.29154 34.8008 5.82233ZM33.5592 7.7255C33.4868 7.90227 33.3808 8.06378 33.247 8.20133C33.1134 8.33741 32.9544 8.4467 32.7787 8.52317C32.5956 8.60317 32.3972 8.64372 32.1969 8.6421H28.9758V5.60553H32.2963C32.4882 5.60398 32.6778 5.6471 32.8497 5.73139C33.016 5.81234 33.1634 5.9266 33.2824 6.06689C33.4044 6.21319 33.5003 6.37881 33.5662 6.55671C33.6374 6.74465 33.6735 6.94377 33.6727 7.14441C33.6739 7.34358 33.6353 7.54103 33.5592 7.7255ZM31.984 1.42145C32.1614 1.41732 32.3375 1.45223 32.4996 1.52363C32.6616 1.59503 32.8054 1.70114 32.9206 1.83423C33.1734 2.12839 33.3051 2.50539 33.2896 2.89069C33.2921 3.09149 33.256 3.29095 33.1832 3.47849C33.1168 3.64882 33.0153 3.80371 32.8851 3.93338C32.758 4.05885 32.609 4.16074 32.4453 4.23417C32.2736 4.3101 32.0872 4.34827 31.899 4.34604H28.9758V1.42145H31.984ZM48.459 9.99946V0.0639763H46.7556L43.4211 6.13758L40.0864 0.0639763H38.3836V9.99946H39.9728V2.84869L42.9811 8.26426H43.861L46.8551 2.84869V9.99946H48.459ZM65.6998 9.99946C66.3932 10.0092 67.0821 9.88803 67.7293 9.64256C68.3119 9.41959 68.8393 9.07602 69.2759 8.63504C69.7114 8.18579 70.0473 7.65206 70.2622 7.06782C70.5019 6.41058 70.6197 5.71613 70.6099 5.01772C70.6142 4.36376 70.5087 3.7136 70.2977 3.0936C70.101 2.51136 69.7846 1.97542 69.3682 1.51932C68.9407 1.06046 68.418 0.697743 67.8357 0.45581C67.1588 0.182098 66.432 0.0487197 65.7006 0.0639763H62.1233V9.99946H65.6992H65.6998ZM68.779 6.44507C68.6483 6.8632 68.4336 7.25108 68.1475 7.58552C67.8639 7.91071 67.5099 8.16895 67.1116 8.34119C66.666 8.52992 66.1847 8.62295 65.6998 8.6141H63.7125V1.44934H65.6992C66.1765 1.44111 66.6503 1.53176 67.0898 1.71542C67.4845 1.88421 67.8378 2.13474 68.1257 2.45003C68.4177 2.77731 68.6374 3.16092 68.7709 3.57648C68.9218 4.04228 68.996 4.52888 68.9909 5.01783C68.9954 5.50156 68.9237 5.98304 68.7784 6.44507H68.779ZM75.292 9.99946V0.0639763H73.7022V9.99946H75.2914H75.292ZM77.9454 9.99946H79.6333L80.6834 7.29873H84.5715L85.6357 9.99946H87.3102L83.337 0.0639763H81.9464L77.9454 9.99946ZM80.9679 6.13723L82.6423 1.86917L84.2599 6.13723H80.9673H80.9679ZM17.3246 0H24.3632V1.38825H17.3246V0ZM17.3246 4.28044H23.5421V5.66869H17.3246V4.28044ZM17.3246 8.56088H24.3632V9.94913H17.3246V8.56088ZM52.166 0H59.2047V1.38825H52.166V0ZM52.166 4.28044H58.3836V5.66869H52.166V4.28044ZM52.166 8.56088H59.2047V9.94913H52.166V8.56088Z" fill="white"/>
<rect x="90" y="7.49976" width="2.5" height="2.5" fill="#FF0000"/>
</svg>
