<svg width="555" height="452" viewBox="0 0 555 452" fill="none" xmlns="http://www.w3.org/2000/svg">
<g opacity="0.04">
<path d="M545.451 158.999L335.951 42.1612C334.393 41.2886 332.552 41.0705 330.833 41.5551L225.51 71.4549L152.983 72.5324V62.0271C159.735 60.3802 165.649 56.3164 169.607 50.604C173.566 44.8917 175.293 37.927 174.464 31.0269C173.635 24.1269 170.306 17.7699 165.107 13.1583C159.907 8.54663 153.199 6 146.249 6C139.299 6 132.59 8.54663 127.391 13.1583C122.192 17.7699 118.863 24.1269 118.034 31.0269C117.204 37.927 118.932 44.8917 122.891 50.604C126.849 56.3164 132.763 60.3802 139.515 62.0271V72.5324L46.8524 73.9466C46.4268 73.909 45.9986 73.909 45.573 73.9466H45.0342C44.3173 74.1256 43.6348 74.4213 43.014 74.822L-41.1633 135.026C-42.5804 136.031 -43.5539 137.546 -43.8802 139.253C-44.2065 140.96 -43.8604 142.726 -42.9142 144.184L152.983 443.451C153.567 444.34 154.354 445.079 155.279 445.606C156.204 446.132 157.24 446.433 158.303 446.481C159.309 446.485 160.303 446.263 161.212 445.832C162.121 445.4 162.922 444.771 163.556 443.99L249.551 336.243L422.283 266.746L423.697 265.938L546.259 170.313C547.14 169.638 547.841 168.757 548.299 167.746C548.757 166.736 548.959 165.628 548.885 164.521C548.826 163.386 548.479 162.284 547.879 161.318C547.278 160.353 546.443 159.555 545.451 158.999ZM131.232 34.5516C131.218 31.592 132.084 28.695 133.718 26.2276C135.353 23.7603 137.683 21.8337 140.414 20.6918C143.144 19.5499 146.152 19.2443 149.057 19.8135C151.961 20.3827 154.631 21.8012 156.729 23.8893C158.826 25.9773 160.257 28.641 160.839 31.5428C161.421 34.4446 161.129 37.454 160 40.1897C158.87 42.9253 156.954 45.2642 154.494 46.9099C152.034 48.5556 149.141 49.4341 146.182 49.4341C142.228 49.4342 138.436 47.8684 135.634 45.0793C132.832 42.2902 131.25 38.5049 131.232 34.5516ZM146.182 129.706C147.968 129.706 149.68 128.996 150.943 127.733C152.206 126.47 152.916 124.757 152.916 122.971V85.7987L223.961 84.9233L407.333 257.924L247.8 322.774L60.8595 87.0782L139.649 85.866V122.837C139.632 123.732 139.792 124.622 140.123 125.455C140.453 126.288 140.946 127.046 141.574 127.686C142.201 128.325 142.949 128.834 143.775 129.18C144.601 129.527 145.488 129.706 146.384 129.706H146.182ZM159.179 428.366L-28.099 142.298L45.977 89.8392L237.228 330.923L159.179 428.366ZM420.195 251.325L239.854 81.2195L331.843 55.2929L529.962 165.733L420.195 251.325Z" fill="black" stroke="white" stroke-width="11"/>
<path d="M408.749 163.174V224.119C408.749 225.905 409.459 227.618 410.722 228.88C411.984 230.143 413.697 230.853 415.483 230.853C417.269 230.853 418.982 230.143 420.245 228.88C421.508 227.618 422.217 225.905 422.217 224.119V163.174C428.951 161.528 434.848 157.472 438.793 151.772C442.739 146.073 444.46 139.125 443.631 132.243C442.801 125.361 439.48 119.022 434.293 114.423C429.107 109.824 422.415 107.284 415.483 107.284C408.551 107.284 401.86 109.824 396.673 114.423C391.487 119.022 388.165 125.361 387.336 132.243C386.507 139.125 388.228 146.073 392.173 151.772C396.119 157.472 402.016 161.528 408.749 163.174ZM415.483 120.816C418.427 120.816 421.304 121.689 423.752 123.325C426.199 124.96 428.107 127.284 429.233 130.004C430.359 132.723 430.654 135.715 430.08 138.602C429.506 141.489 428.088 144.141 426.007 146.222C423.925 148.304 421.274 149.721 418.387 150.295C415.5 150.87 412.507 150.575 409.788 149.449C407.069 148.322 404.744 146.415 403.109 143.967C401.474 141.52 400.601 138.642 400.601 135.699C400.601 131.752 402.169 127.966 404.96 125.175C407.751 122.384 411.536 120.816 415.483 120.816Z" fill="black" stroke="white" stroke-width="11"/>
<path d="M219.857 159.605V220.213C219.857 221.999 220.566 223.711 221.829 224.974C223.092 226.237 224.805 226.947 226.591 226.947C228.377 226.947 230.09 226.237 231.352 224.974C232.615 223.711 233.325 221.999 233.325 220.213V159.605C240.058 157.958 245.955 153.902 249.901 148.203C253.846 142.503 255.567 135.556 254.738 128.674C253.909 121.792 250.587 115.452 245.401 110.853C240.214 106.254 233.523 103.715 226.591 103.715C219.659 103.715 212.967 106.254 207.781 110.853C202.594 115.452 199.273 121.792 198.443 128.674C197.614 135.556 199.335 142.503 203.281 148.203C207.226 153.902 213.123 157.958 219.857 159.605ZM226.591 117.247C229.569 117.167 232.504 117.978 235.018 119.577C237.532 121.176 239.511 123.49 240.7 126.222C241.89 128.953 242.237 131.978 241.695 134.908C241.154 137.838 239.749 140.539 237.662 142.665C235.574 144.791 232.899 146.245 229.98 146.84C227.06 147.435 224.03 147.144 221.277 146.005C218.524 144.865 216.174 142.929 214.529 140.445C212.884 137.961 212.019 135.042 212.045 132.062C212.078 128.19 213.613 124.481 216.326 121.718C219.04 118.954 222.719 117.352 226.591 117.247Z" fill="black" stroke="white" stroke-width="11"/>
<path d="M105.711 185.128C98.743 185.051 91.9922 187.55 86.7529 192.144C81.5136 196.738 78.1546 203.105 77.3201 210.023C76.4856 216.941 78.2343 223.923 82.2308 229.632C86.2274 235.34 92.1905 239.372 98.9767 240.954V301.562C98.9767 303.348 99.6862 305.061 100.949 306.324C102.212 307.587 103.925 308.296 105.711 308.296C107.497 308.296 109.21 307.587 110.473 306.324C111.736 305.061 112.445 303.348 112.445 301.562V240.954C119.231 239.372 125.194 235.34 129.191 229.632C133.187 223.923 134.936 216.941 134.102 210.023C133.267 203.105 129.908 196.738 124.669 192.144C119.43 187.55 112.679 185.051 105.711 185.128ZM105.711 228.361C102.767 228.361 99.89 227.489 97.4426 225.853C94.9952 224.218 93.0876 221.894 91.9612 219.174C90.8348 216.455 90.5401 213.462 91.1143 210.576C91.6886 207.689 93.106 205.037 95.1873 202.955C97.2687 200.874 99.9205 199.457 102.807 198.882C105.694 198.308 108.687 198.603 111.406 199.729C114.126 200.856 116.45 202.763 118.085 205.211C119.721 207.658 120.593 210.535 120.593 213.479C120.593 217.426 119.025 221.211 116.234 224.002C113.443 226.793 109.658 228.361 105.711 228.361Z" fill="black" stroke="white" stroke-width="11"/>
</g>
</svg>
