<svg width="435" height="410" viewBox="0 0 435 410" fill="none" xmlns="http://www.w3.org/2000/svg">
<path d="M507.762 56.6642L499.844 52.6882M507.762 56.6642L348.079 246.188M507.762 56.6642L517 73.8937M499.844 52.6882L334.882 242.212M499.844 52.6882L486.647 43.4109M334.882 242.212L312.448 334.986L297.931 327.033L312.448 254.14L324.325 195.825M334.882 242.212L348.079 246.188M324.325 195.825L486.647 43.4109M324.325 195.825L295.292 154.739M486.647 43.4109L462.893 31.4828M462.893 31.4828L295.292 154.739M462.893 31.4828L420.662 23.5308M295.292 154.739L283.414 161.366L303.21 205.102L274.176 315.105L72.2634 223.657M72.2634 223.657L420.662 23.5308M72.2634 223.657L94.6982 126.907L115.813 112.328M420.662 23.5308L382.391 4.97602M382.391 4.97602L115.813 112.328M382.391 4.97602L366.555 1M115.813 112.328L107.895 96.4244M107.895 96.4244L81.5013 112.328L55.1074 218.356L16.8363 199.801L28.7136 121.606M107.895 96.4244L237.225 48.7122M366.555 1L332.243 4.97602L11.5576 112.328M366.555 1L237.225 48.7122M11.5576 112.328L1 214.38L155.404 287.273L143.5 347L159.382 355.758M11.5576 112.328L28.7136 121.606M159.382 355.758L171.694 296.912L201.915 312.604M159.382 355.758L201.915 312.604M238.545 374.746L217.43 365.468L222.623 324.374L201.915 312.604M238.545 374.746L243.33 332.22L266.275 342.868M238.545 374.746L266.275 342.868M312.448 409L293.972 399.723L303.21 360.167L266.275 342.868M312.448 409L338.841 334.986M312.448 409L507.762 101.726L517 73.8937M338.841 334.986L348.079 246.188M338.841 334.986L517 73.8937M28.7136 121.606L237.225 48.7122" stroke="url(#paint0_linear)" stroke-linecap="square" stroke-linejoin="round"/>
<defs>
<linearGradient id="paint0_linear" x1="300.974" y1="-14.6923" x2="140.52" y2="407.73" gradientUnits="userSpaceOnUse">
<stop stop-opacity="0"/>
<stop offset="1" stop-opacity="0.14"/>
</linearGradient>
</defs>
</svg>
