<svg width="383" height="303" viewBox="0 0 383 303" fill="none" xmlns="http://www.w3.org/2000/svg">
<path d="M7.82097 42.066L13.6675 39.1327M7.82097 42.066L125.726 181.886M7.82097 42.066L1 54.7769M13.6675 39.1327L135.471 178.953M13.6675 39.1327L23.4118 32.2884M135.471 178.953L152.036 247.396L162.754 241.53L152.036 187.753L143.266 144.731M135.471 178.953L125.726 181.886M143.266 144.731L23.4118 32.2884M143.266 144.731L164.703 114.42M23.4118 32.2884L40.9514 23.4885M40.9514 23.4885L164.703 114.42M40.9514 23.4885L72.133 17.622M164.703 114.42L173.473 119.309L158.857 151.575L180.294 232.73L329.381 165.264M329.381 165.264L72.133 17.622M329.381 165.264L312.816 93.8874L297.225 83.132M72.133 17.622L100.391 3.93329M100.391 3.93329L297.225 83.132M100.391 3.93329L112.084 1M297.225 83.132L303.072 71.3989M303.072 71.3989L322.56 83.132L342.049 161.353L370.307 147.664L361.537 89.9764M303.072 71.3989L207.578 36.1994M112.084 1L137.419 3.93329L374.205 83.132M112.084 1L207.578 36.1994M374.205 83.132L382 158.42L267.992 212.197L276.782 256.26L265.055 262.721M374.205 83.132L361.537 89.9764M265.055 262.721L255.964 219.308L233.65 230.885M265.055 262.721L233.65 230.885M206.604 276.729L222.194 269.885L218.36 239.567L233.65 230.885M206.604 276.729L203.071 245.356L186.128 253.212M206.604 276.729L186.128 253.212M152.036 302L165.678 295.156L158.857 265.974L186.128 253.212M152.036 302L132.547 247.396M152.036 302L7.82097 75.3099L1 54.7769M132.547 247.396L125.726 181.886M132.547 247.396L1 54.7769M361.537 89.9764L207.578 36.1994" stroke="url(#paint0_linear)" stroke-linecap="square" stroke-linejoin="round"/>
<defs>
<linearGradient id="paint0_linear" x1="160.508" y1="-10.5769" x2="278.807" y2="301.13" gradientUnits="userSpaceOnUse">
<stop stop-opacity="0"/>
<stop offset="1" stop-opacity="0.14"/>
</linearGradient>
</defs>
</svg>
