<?xml version="1.0" encoding="UTF-8" standalone="no"?>
<svg
   xmlns:dc="http://purl.org/dc/elements/1.1/"
   xmlns:cc="http://creativecommons.org/ns#"
   xmlns:rdf="http://www.w3.org/1999/02/22-rdf-syntax-ns#"
   xmlns:svg="http://www.w3.org/2000/svg"
   xmlns="http://www.w3.org/2000/svg"
   xmlns:sodipodi="http://sodipodi.sourceforge.net/DTD/sodipodi-0.dtd"
   xmlns:inkscape="http://www.inkscape.org/namespaces/inkscape"
   width="29"
   height="27"
   viewBox="0 0 29 27"
   fill="none"
   version="1.1"
   id="svg8"
   sodipodi:docname="basket.svg"
   inkscape:version="0.92.3 (2405546, 2018-03-11)">
  <metadata
     id="metadata14">
    <rdf:RDF>
      <cc:Work
         rdf:about="">
        <dc:format>image/svg+xml</dc:format>
        <dc:type
           rdf:resource="http://purl.org/dc/dcmitype/StillImage" />
        <dc:title></dc:title>
      </cc:Work>
    </rdf:RDF>
  </metadata>
  <defs
     id="defs12" />
  <sodipodi:namedview
     pagecolor="#ffffff"
     bordercolor="#666666"
     borderopacity="1"
     objecttolerance="10"
     gridtolerance="10"
     guidetolerance="10"
     inkscape:pageopacity="0"
     inkscape:pageshadow="2"
     inkscape:window-width="1366"
     inkscape:window-height="705"
     id="namedview10"
     showgrid="false"
     inkscape:zoom="8.7407407"
     inkscape:cx="14.5"
     inkscape:cy="13.5"
     inkscape:window-x="-8"
     inkscape:window-y="-8"
     inkscape:window-maximized="1"
     inkscape:current-layer="svg8" />
  <path
     style="color:#000000;font-style:normal;font-variant:normal;font-weight:normal;font-stretch:normal;font-size:medium;line-height:normal;font-family:sans-serif;font-variant-ligatures:normal;font-variant-position:normal;font-variant-caps:normal;font-variant-numeric:normal;font-variant-alternates:normal;font-feature-settings:normal;text-indent:0;text-align:start;text-decoration:none;text-decoration-line:none;text-decoration-style:solid;text-decoration-color:#000000;letter-spacing:normal;word-spacing:normal;text-transform:none;writing-mode:lr-tb;direction:ltr;text-orientation:mixed;dominant-baseline:auto;baseline-shift:baseline;text-anchor:start;white-space:normal;shape-padding:0;clip-rule:nonzero;display:inline;overflow:visible;visibility:visible;opacity:1;isolation:auto;mix-blend-mode:normal;color-interpolation:sRGB;color-interpolation-filters:linearRGB;solid-color:#000000;solid-opacity:1;vector-effect:none;fill:#ffffff;fill-opacity:1;fill-rule:nonzero;stroke:none;stroke-width:2;stroke-linecap:round;stroke-linejoin:round;stroke-miterlimit:4;stroke-dasharray:none;stroke-dashoffset:0;stroke-opacity:1;color-rendering:auto;image-rendering:auto;shape-rendering:auto;text-rendering:auto;enable-background:accumulate"
     d="m 1,0 a 1.0001,1.0001 0 1 0 0,2 h 3.671875 l 1.2519531,18.148438 a 1.0001,1.0001 0 0 0 0.9980469,0.929687 h 20.394531 a 1.0001,1.0001 0 1 0 0,-2 H 7.8535156 l -1.25,-18.14648438 A 1.0001,1.0001 0 0 0 5.6054688,0 Z m 17.089844,1.3007812 a 1.0001,1.0001 0 0 0 -0.148438,0.015625 h -7.730468 a 1.0001,1.0001 0 0 0 -1.0000005,1 V 14.816406 a 1.0001,1.0001 0 0 0 1.0000005,1 H 26 a 1.0001,1.0001 0 0 0 1,-1 V 2.3164062 a 1.0001,1.0001 0 0 0 -1,-1 h -7.724609 a 1.0001,1.0001 0 0 0 -0.185547,-0.015625 z m -6.878906,2.015625 h 5.894531 v 4.9199219 a 1.0001,1.0001 0 1 0 2,0 V 3.3164062 H 25 V 13.816406 H 11.210938 Z"
     id="path2"
     inkscape:connector-curvature="0" />
  <path
     style="color:#000000;font-style:normal;font-variant:normal;font-weight:normal;font-stretch:normal;font-size:medium;line-height:normal;font-family:sans-serif;font-variant-ligatures:normal;font-variant-position:normal;font-variant-caps:normal;font-variant-numeric:normal;font-variant-alternates:normal;font-feature-settings:normal;text-indent:0;text-align:start;text-decoration:none;text-decoration-line:none;text-decoration-style:solid;text-decoration-color:#000000;letter-spacing:normal;word-spacing:normal;text-transform:none;writing-mode:lr-tb;direction:ltr;text-orientation:mixed;dominant-baseline:auto;baseline-shift:baseline;text-anchor:start;white-space:normal;shape-padding:0;clip-rule:nonzero;display:inline;overflow:visible;visibility:visible;opacity:1;isolation:auto;mix-blend-mode:normal;color-interpolation:sRGB;color-interpolation-filters:linearRGB;solid-color:#000000;solid-opacity:1;vector-effect:none;fill-opacity:1;fill-rule:nonzero;stroke:none;stroke-width:1;stroke-linecap:butt;stroke-linejoin:miter;stroke-miterlimit:4;stroke-dasharray:none;stroke-dashoffset:0;stroke-opacity:1;color-rendering:auto;image-rendering:auto;shape-rendering:auto;text-rendering:auto;enable-background:accumulate;fill:#ffffff"
     d="m 10.210938,22.552734 c -1.3602429,0 -2.4746099,1.112414 -2.4746099,2.472657 0,1.360242 1.114367,2.474609 2.4746099,2.474609 1.360242,0 2.472656,-1.114367 2.472656,-2.474609 0,-1.360243 -1.112414,-2.472657 -2.472656,-2.472657 z m 0,1 c 0.819802,0 1.472656,0.652854 1.472656,1.472657 0,0.819802 -0.652854,1.474609 -1.472656,1.474609 -0.8198028,0 -1.4746099,-0.654807 -1.4746099,-1.474609 0,-0.819803 0.6548071,-1.472657 1.4746099,-1.472657 z"
     id="circle4"
     inkscape:connector-curvature="0" />
  <path
     style="color:#000000;font-style:normal;font-variant:normal;font-weight:normal;font-stretch:normal;font-size:medium;line-height:normal;font-family:sans-serif;font-variant-ligatures:normal;font-variant-position:normal;font-variant-caps:normal;font-variant-numeric:normal;font-variant-alternates:normal;font-feature-settings:normal;text-indent:0;text-align:start;text-decoration:none;text-decoration-line:none;text-decoration-style:solid;text-decoration-color:#000000;letter-spacing:normal;word-spacing:normal;text-transform:none;writing-mode:lr-tb;direction:ltr;text-orientation:mixed;dominant-baseline:auto;baseline-shift:baseline;text-anchor:start;white-space:normal;shape-padding:0;clip-rule:nonzero;display:inline;overflow:visible;visibility:visible;opacity:1;isolation:auto;mix-blend-mode:normal;color-interpolation:sRGB;color-interpolation-filters:linearRGB;solid-color:#000000;solid-opacity:1;vector-effect:none;fill-opacity:1;fill-rule:nonzero;stroke:none;stroke-width:1;stroke-linecap:butt;stroke-linejoin:miter;stroke-miterlimit:4;stroke-dasharray:none;stroke-dashoffset:0;stroke-opacity:1;color-rendering:auto;image-rendering:auto;shape-rendering:auto;text-rendering:auto;enable-background:accumulate;fill:#ffffff"
     d="m 24.685547,22.552734 c -1.360243,0 -2.474609,1.112414 -2.474609,2.472657 0,1.360242 1.114366,2.474609 2.474609,2.474609 1.360242,0 2.472656,-1.114367 2.472656,-2.474609 0,-1.360243 -1.112414,-2.472657 -2.472656,-2.472657 z m 0,1 c 0.819802,0 1.472656,0.652854 1.472656,1.472657 0,0.819802 -0.652854,1.474609 -1.472656,1.474609 -0.819802,0 -1.474609,-0.654807 -1.474609,-1.474609 0,-0.819803 0.654807,-1.472657 1.474609,-1.472657 z"
     id="circle6"
     inkscape:connector-curvature="0" />
</svg>
