<?xml version="1.0" encoding="UTF-8" standalone="no"?>
<svg
   xmlns:dc="http://purl.org/dc/elements/1.1/"
   xmlns:cc="http://creativecommons.org/ns#"
   xmlns:rdf="http://www.w3.org/1999/02/22-rdf-syntax-ns#"
   xmlns:svg="http://www.w3.org/2000/svg"
   xmlns="http://www.w3.org/2000/svg"
   xmlns:sodipodi="http://sodipodi.sourceforge.net/DTD/sodipodi-0.dtd"
   xmlns:inkscape="http://www.inkscape.org/namespaces/inkscape"
   width="18"
   height="17"
   viewBox="0 0 18 17"
   fill="none"
   version="1.1"
   id="svg10"
   sodipodi:docname="filter.svg"
   inkscape:version="0.92.3 (2405546, 2018-03-11)">
  <metadata
     id="metadata16">
    <rdf:RDF>
      <cc:Work
         rdf:about="">
        <dc:format>image/svg+xml</dc:format>
        <dc:type
           rdf:resource="http://purl.org/dc/dcmitype/StillImage" />
        <dc:title></dc:title>
      </cc:Work>
    </rdf:RDF>
  </metadata>
  <defs
     id="defs14" />
  <sodipodi:namedview
     pagecolor="#ffffff"
     bordercolor="#666666"
     borderopacity="1"
     objecttolerance="10"
     gridtolerance="10"
     guidetolerance="10"
     inkscape:pageopacity="0"
     inkscape:pageshadow="2"
     inkscape:window-width="1366"
     inkscape:window-height="705"
     id="namedview12"
     showgrid="false"
     inkscape:zoom="13.882353"
     inkscape:cx="9"
     inkscape:cy="8.5"
     inkscape:window-x="-8"
     inkscape:window-y="-8"
     inkscape:window-maximized="1"
     inkscape:current-layer="svg10" />
  <path
     id="circle8"
     style="color:#000000;font-style:normal;font-variant:normal;font-weight:normal;font-stretch:normal;font-size:medium;line-height:normal;font-family:sans-serif;font-variant-ligatures:normal;font-variant-position:normal;font-variant-caps:normal;font-variant-numeric:normal;font-variant-alternates:normal;font-feature-settings:normal;text-indent:0;text-align:start;text-decoration:none;text-decoration-line:none;text-decoration-style:solid;text-decoration-color:#000000;letter-spacing:normal;word-spacing:normal;text-transform:none;writing-mode:lr-tb;direction:ltr;text-orientation:mixed;dominant-baseline:auto;baseline-shift:baseline;text-anchor:start;white-space:normal;shape-padding:0;clip-rule:nonzero;display:inline;overflow:visible;visibility:visible;opacity:1;isolation:auto;mix-blend-mode:normal;color-interpolation:sRGB;color-interpolation-filters:linearRGB;solid-color:#000000;solid-opacity:1;vector-effect:none;fill:#00ff00;fill-opacity:1;fill-rule:nonzero;stroke:none;stroke-width:2;stroke-linecap:butt;stroke-linejoin:miter;stroke-miterlimit:4;stroke-dasharray:none;stroke-dashoffset:0;stroke-opacity:1;color-rendering:auto;image-rendering:auto;shape-rendering:auto;text-rendering:auto;enable-background:accumulate"
     d="m 13.5,9 c 2.197294,0 4,1.802706 4,4 0,2.197294 -1.802706,4 -4,4 -2.197294,0 -4,-1.802706 -4,-4 0,-2.197294 1.802706,-4 4,-4 z m 0,2 c -1.116414,0 -2,0.883586 -2,2 0,1.116414 0.883586,2 2,2 1.116414,0 2,-0.883586 2,-2 0,-1.116414 -0.883586,-2 -2,-2 z m -13,1 v 2 h 10 v -2 z m 4,-12 c -2.1972944,0 -4,1.8027056 -4,4 0,2.1972944 1.8027056,4 4,4 2.1972944,0 4,-1.8027056 4,-4 0,-2.1972944 -1.8027056,-4 -4,-4 z m 0,2 c 1.1164141,0 2,0.8835859 2,2 0,1.1164141 -0.8835859,2 -2,2 -1.1164141,0 -2,-0.8835859 -2,-2 0,-1.1164141 0.8835859,-2 2,-2 z m 3,1 v 2 h 10 V 3 Z" />
  <path
     style="opacity:1;fill:#00ff00;fill-opacity:1;stroke:#197261;stroke-width:0.00410593;stroke-miterlimit:4;stroke-dasharray:none;stroke-opacity:1"
     d="M 9.6325848,13.870306 C 9.5486953,13.651693 9.5095206,12.731918 9.5701425,12.404237 l 0.059969,-0.324152 0.4124865,-0.0216 0.412487,-0.0216 v 0.976053 0.976052 h -0.38848 c -0.2943245,0 -0.3995173,-0.02876 -0.4340204,-0.118677 z"
     id="path834"
     inkscape:connector-curvature="0" />
</svg>
