<svg width="26" height="26" viewBox="0 0 26 26" fill="none" xmlns="http://www.w3.org/2000/svg">
<rect x="0.947266" y="0.537354" width="24.8731" height="24.8731" fill="#4E6297"/>
<path d="M19.791 8.69286C19.791 7.56422 18.7951 6.56836 17.6665 6.56836H9.10204C7.9734 6.56836 6.97754 7.56422 6.97754 8.69286V17.2573C6.97754 18.3859 7.9734 19.3818 9.10204 19.3818H13.4174V14.5353H11.8241V12.4108H13.4174V11.5477C13.4174 10.0871 14.4797 8.82564 15.8075 8.82564H17.5337V10.9501H15.8075C15.6083 10.9501 15.4092 11.1493 15.4092 11.5477V12.4108H17.5337V14.5353H15.4092V19.3818H17.6665C18.7951 19.3818 19.791 18.3859 19.791 17.2573V8.69286Z" fill="white"/>
</svg>
