<svg width="26" height="26" viewBox="0 0 26 26" fill="none" xmlns="http://www.w3.org/2000/svg">
<rect x="0.358398" y="0.537354" width="24.8731" height="24.8731" fill="#F79A38"/>
<path d="M17.3999 14.3349C17.7467 13.982 17.7963 13.4778 17.499 12.9737C17.2512 12.5703 16.8053 12.3687 16.3097 12.4695C16.1115 12.5199 15.9133 12.6208 15.7151 12.772C14.179 13.8308 12.0979 13.7803 10.5618 12.7216C10.4627 12.6712 10.3636 12.6208 10.2645 12.5703C9.71941 12.3182 9.17435 12.4191 8.87704 12.9233C8.53018 13.4274 8.57973 13.982 9.02569 14.4358C9.12479 14.5366 9.2239 14.587 9.27345 14.6878L9.323 14.7383C10.0167 15.2928 10.8591 15.6458 11.9492 15.797L11.3051 16.4524C10.76 17.007 10.1654 17.612 9.62031 18.1666C9.47166 18.3179 9.27345 18.5699 9.27345 18.9229C9.27345 19.3766 9.52121 19.8304 9.96717 20.032C10.1158 20.1329 10.2645 20.1329 10.4131 20.1329C10.6609 20.1329 10.9582 20.032 11.1564 19.7799C11.8997 19.0237 12.4943 18.4187 13.0889 17.8137C13.1385 17.7633 13.1385 17.7633 13.1385 17.7633C13.1385 17.7633 13.188 17.7633 13.188 17.8137C13.5844 18.2674 14.0304 18.6708 14.4268 19.1245C14.625 19.3262 14.8232 19.5279 15.0214 19.7295C15.2692 19.9816 15.4674 20.0824 15.7647 20.0824C16.2106 20.1329 16.7062 19.8304 16.9044 19.3766C17.1026 18.9733 17.0035 18.4691 16.6566 18.1666C16.1611 17.6624 15.6656 17.1078 15.1205 16.6037L14.2781 15.7466C14.7241 15.6962 15.2196 15.5953 15.6656 15.3937C16.4088 15.1416 16.9539 14.7887 17.3999 14.3349Z" fill="white"/>
<path d="M13.1385 12.9233C15.2692 12.9233 17.0035 11.2091 17.0035 9.04115C17.0035 7.9824 16.607 6.97407 15.8638 6.21782C15.1205 5.46156 14.179 5.05823 13.188 5.05823C11.0573 5.05823 9.37255 6.82281 9.323 8.94032C9.323 9.99907 9.71941 10.957 10.4627 11.7132C11.1564 12.5199 12.0979 12.9233 13.1385 12.9233ZM12.0483 7.88157C12.3456 7.57907 12.742 7.42782 13.1385 7.42782C14.0304 7.42782 14.6745 8.13365 14.6745 8.99074C14.6745 9.89824 13.9808 10.5537 13.1385 10.5537C12.2465 10.5537 11.6024 9.84783 11.6024 8.99074C11.6024 8.5874 11.751 8.18407 12.0483 7.88157Z" fill="white"/>
<path d="M17.3999 14.3349C17.7467 13.982 17.7963 13.4778 17.499 12.9737C17.2512 12.5703 16.8053 12.3687 16.3097 12.4695C16.1115 12.5199 15.9133 12.6208 15.7151 12.772C14.179 13.8308 12.0979 13.7803 10.5618 12.7216C10.4627 12.6712 10.3636 12.6208 10.2645 12.5703C9.71941 12.3182 9.17435 12.4191 8.87704 12.9233C8.53018 13.4274 8.57973 13.982 9.02569 14.4358C9.12479 14.5366 9.2239 14.587 9.27345 14.6878L9.323 14.7383C10.0167 15.2928 10.8591 15.6458 11.9492 15.797L11.3051 16.4524C10.76 17.007 10.1654 17.612 9.62031 18.1666C9.47166 18.3179 9.27345 18.5699 9.27345 18.9229C9.27345 19.3766 9.52121 19.8304 9.96717 20.032C10.1158 20.1329 10.2645 20.1329 10.4131 20.1329C10.6609 20.1329 10.9582 20.032 11.1564 19.7799C11.8997 19.0237 12.4943 18.4187 13.0889 17.8137C13.1385 17.7633 13.1385 17.7633 13.1385 17.7633C13.1385 17.7633 13.188 17.7633 13.188 17.8137C13.5844 18.2674 14.0304 18.6708 14.4268 19.1245C14.625 19.3262 14.8232 19.5279 15.0214 19.7295C15.2692 19.9816 15.4674 20.0824 15.7647 20.0824C16.2106 20.1329 16.7062 19.8304 16.9044 19.3766C17.1026 18.9733 17.0035 18.4691 16.6566 18.1666C16.1611 17.6624 15.6656 17.1078 15.1205 16.6037L14.2781 15.7466C14.7241 15.6962 15.2196 15.5953 15.6656 15.3937C16.4088 15.1416 16.9539 14.7887 17.3999 14.3349Z" fill="white"/>
</svg>
