<svg width="26" height="26" viewBox="0 0 26 26" fill="none" xmlns="http://www.w3.org/2000/svg">
<rect x="0.588867" y="0.537354" width="24.8731" height="24.8731" fill="#2F89CE"/>
<path d="M5.37664 12.8802L8.84237 14.1725L10.1934 18.5193C10.2521 18.813 10.6046 18.8717 10.8396 18.6955L12.778 17.1095C12.9542 16.9333 13.2479 16.9333 13.4829 17.1095L16.9486 19.6354C17.1836 19.8116 17.536 19.6941 17.5948 19.4004L20.1794 7.06481C20.2381 6.7711 19.9444 6.4774 19.6507 6.59488L5.37664 12.1165C5.02419 12.234 5.02419 12.7627 5.37664 12.8802ZM10.0172 13.5263L16.8311 9.35571C16.9486 9.29697 17.0661 9.47319 16.9486 9.53193L11.3682 14.7599C11.192 14.9361 11.0158 15.1711 11.0158 15.4648L10.8396 16.8746C10.8396 17.0508 10.5459 17.1095 10.4871 16.8746L9.78221 14.2899C9.60599 13.9962 9.72348 13.6438 10.0172 13.5263Z" fill="white"/>
</svg>
