<svg width="26" height="26" viewBox="0 0 26 26" fill="none" xmlns="http://www.w3.org/2000/svg">
<rect x="0.768555" y="0.537354" width="24.8731" height="24.8731" fill="#7C509A"/>
<path d="M17.5421 4.71762C14.6692 4.16899 11.6859 4.16899 8.81303 4.71762C7.54234 4.99194 5.94017 6.5281 5.66394 7.73509C5.16671 10.0942 5.16671 12.5082 5.66394 14.8673C5.99542 16.0743 7.59759 17.6104 8.81303 17.8847C8.86828 17.8847 8.92352 17.9396 8.92352 17.9945V21.4508C8.92352 21.6154 9.14452 21.7251 9.25501 21.5606L10.9124 19.8598C10.9124 19.8598 12.2384 18.4882 12.4594 18.2688C12.4594 18.2688 12.5146 18.2139 12.5699 18.2139C14.2273 18.2688 15.9399 18.1042 17.5974 17.8299C18.868 17.5556 20.4702 16.0194 20.7465 14.8124C21.2437 12.4533 21.2437 10.0393 20.7465 7.68022C20.415 6.5281 18.8128 4.99194 17.5421 4.71762ZM17.5974 15.0319C17.3211 15.5805 16.9896 16.0194 16.4372 16.2937C16.2714 16.3486 16.1057 16.4034 15.9399 16.4583C15.7189 16.4034 15.5532 16.3486 15.3875 16.2937C13.6195 15.5805 11.9621 14.593 10.6362 13.1665C9.91798 12.3436 9.31026 11.4109 8.81303 10.4234C8.59204 9.92961 8.37105 9.4907 8.20531 8.99694C8.03957 8.55803 8.3158 8.11913 8.59204 7.78995C8.86828 7.46077 9.19976 7.24132 9.58649 7.07673C9.86273 6.91214 10.139 7.02187 10.36 7.24132C10.8019 7.78995 11.2439 8.33858 11.5754 8.94207C11.7964 9.32611 11.7411 9.76502 11.3544 10.0393C11.2439 10.0942 11.1887 10.1491 11.0782 10.2588C11.0229 10.3136 10.9124 10.3685 10.8572 10.4782C10.7467 10.6428 10.7467 10.8074 10.8019 10.972C11.2439 12.2339 12.0726 13.2214 13.3433 13.77C13.5643 13.8797 13.73 13.9346 14.0063 13.9346C14.393 13.8797 14.5588 13.4408 14.835 13.2214C15.1112 13.0019 15.4427 13.0019 15.7742 13.1665C16.0504 13.3311 16.3267 13.5506 16.6581 13.77C16.9344 13.9895 17.2106 14.1541 17.4869 14.3735C17.6526 14.4832 17.7079 14.7575 17.5974 15.0319ZM15.277 10.9171C15.1665 10.9171 15.2217 10.9171 15.277 10.9171C15.056 10.9171 15.0007 10.8074 14.9455 10.6428C14.9455 10.5331 14.9455 10.3685 14.8902 10.2588C14.835 10.0393 14.7245 9.81988 14.5035 9.65529C14.393 9.60043 14.2825 9.54557 14.172 9.4907C14.0063 9.43584 13.8958 9.43584 13.73 9.43584C13.5643 9.38098 13.5091 9.27125 13.5091 9.10666C13.5091 8.99694 13.6748 8.88721 13.7853 8.88721C14.6692 8.94207 15.3322 9.43584 15.4427 10.4782C15.4427 10.5331 15.4427 10.6428 15.4427 10.6977C15.4427 10.8074 15.3875 10.9171 15.277 10.9171ZM14.7245 8.50317C14.4483 8.39344 14.172 8.28372 13.8405 8.22885C13.73 8.22885 13.5643 8.17399 13.4538 8.17399C13.2881 8.17399 13.1776 8.06427 13.2328 7.89968C13.2328 7.73509 13.3433 7.62536 13.5091 7.68022C14.0615 7.73509 14.5588 7.84481 15.056 8.06427C16.0504 8.55803 16.6029 9.38098 16.7686 10.4782C16.7686 10.5331 16.7686 10.588 16.7686 10.6428C16.7686 10.7526 16.7686 10.8623 16.7686 11.0269C16.7686 11.0817 16.7686 11.1366 16.7686 11.1915C16.7134 11.4109 16.3267 11.4658 16.2714 11.1915C16.2714 11.1366 16.2162 11.0269 16.2162 10.972C16.2162 10.4782 16.1057 9.98447 15.8847 9.54557C15.5532 9.0518 15.1665 8.72262 14.7245 8.50317ZM17.7079 11.7949C17.5421 11.7949 17.4316 11.6304 17.4316 11.4658C17.4316 11.1366 17.3764 10.8074 17.3211 10.4782C17.1001 8.72262 15.6637 7.29618 13.951 7.02187C13.6748 6.96701 13.3986 6.96701 13.1776 6.91214C13.0118 6.91214 12.7908 6.91214 12.7356 6.69269C12.6803 6.5281 12.8461 6.36351 13.0118 6.36351C13.0671 6.36351 13.1223 6.36351 13.1223 6.36351C15.3875 6.41838 13.2328 6.36351 13.1223 6.36351C15.4427 6.41838 17.3764 7.95454 17.7631 10.2588C17.8183 10.6428 17.8736 11.0269 17.8736 11.4658C17.9841 11.6304 17.8736 11.7949 17.7079 11.7949Z" fill="white"/>
</svg>
