<svg width="26" height="26" viewBox="0 0 26 26" fill="none" xmlns="http://www.w3.org/2000/svg">
<rect x="0.537109" y="0.537354" width="24.8731" height="24.8731" fill="#7294C7"/>
<path d="M20.6422 16.2717C20.6422 16.2091 20.5796 16.2091 20.5796 16.1465C20.3293 15.6459 19.7661 15.0201 19.0152 14.3318C18.6398 14.0189 18.452 13.7686 18.3269 13.6434C18.1391 13.3931 18.1391 13.2054 18.2017 12.9551C18.2643 12.7674 18.5146 12.4545 18.9526 11.8913C19.2029 11.5784 19.3281 11.3907 19.5158 11.2029C20.4545 9.95141 20.8925 9.1379 20.7674 8.76244L20.7048 8.69987C20.6422 8.63729 20.5796 8.57471 20.4545 8.57471C20.3293 8.51214 20.1416 8.51214 19.9539 8.57471H17.576C17.5134 8.57471 17.5134 8.57471 17.3882 8.57471C17.3256 8.57471 17.2631 8.57471 17.2631 8.57471H17.2005H17.1379L17.0753 8.63729C17.0127 8.69986 17.0127 8.69986 17.0127 8.76244C16.7624 9.45078 16.4496 10.014 16.1367 10.6397C15.9489 10.9526 15.7612 11.2655 15.5735 11.5158C15.3858 11.7661 15.2606 11.9539 15.1354 12.079C15.0103 12.2042 14.8851 12.2668 14.8225 12.3919C14.76 12.4545 14.6348 12.5171 14.6348 12.4545C14.5722 12.4545 14.5097 12.4545 14.5097 12.3919C14.4471 12.3293 14.3845 12.2667 14.3219 12.2042C14.2594 12.1416 14.2594 12.0164 14.1968 11.8913C14.1968 11.7661 14.1968 11.641 14.1968 11.5784C14.1968 11.5158 14.1968 11.3281 14.1968 11.2029C14.1968 11.0152 14.1968 10.8901 14.1968 10.8275C14.1968 10.6397 14.1968 10.3894 14.1968 10.1391C14.1968 9.88883 14.1968 9.70109 14.1968 9.57594C14.1968 9.45079 14.1968 9.26306 14.1968 9.1379C14.1968 8.95017 14.1968 8.82501 14.1968 8.76244C14.1968 8.69986 14.1342 8.57471 14.1342 8.51213C14.0716 8.44956 14.0091 8.38698 13.9465 8.3244C13.8839 8.26182 13.7587 8.26183 13.6962 8.19925C13.3833 8.13667 13.0078 8.0741 12.5698 8.0741C11.5686 8.0741 10.8802 8.13668 10.6299 8.26183C10.5047 8.32441 10.3796 8.38698 10.317 8.51213C10.1919 8.63729 10.1919 8.69987 10.2544 8.69987C10.5673 8.76244 10.8176 8.88759 10.9428 9.07532L11.0054 9.20048C11.0679 9.26306 11.0679 9.38821 11.1305 9.57594C11.1931 9.76367 11.1931 9.9514 11.1931 10.2017C11.1931 10.5772 11.1931 10.9526 11.1931 11.2029C11.1931 11.5158 11.1305 11.7036 11.1305 11.8913C11.1305 12.079 11.0679 12.2042 11.0054 12.2668C10.9428 12.3919 10.9428 12.4545 10.8802 12.4545C10.8802 12.4545 10.8802 12.5171 10.8176 12.5171C10.7551 12.5171 10.6925 12.5796 10.5673 12.5796C10.5047 12.5796 10.3796 12.5171 10.317 12.4545C10.1919 12.3919 10.0667 12.2668 10.0041 12.1416C9.87898 12.0164 9.75382 11.8287 9.62867 11.5784C9.50351 11.3281 9.31578 11.0778 9.19062 10.7023L9.06548 10.452C9.0029 10.3269 8.87775 10.0766 8.75259 9.76367C8.62744 9.45079 8.50228 9.20048 8.37713 8.8876C8.31455 8.76245 8.25198 8.69986 8.18941 8.63729H8.12682C8.12682 8.63729 8.06424 8.57471 8.00166 8.57471C7.93909 8.57471 7.87652 8.51213 7.81394 8.51213H5.56116C5.31086 8.51213 5.1857 8.57471 5.12313 8.63729L5.06055 8.69987C5.06055 8.69987 5.06055 8.76244 5.06055 8.82502C5.06055 8.8876 5.06055 8.95017 5.12313 9.07532C5.43601 9.82625 5.81147 10.5772 6.18693 11.3281C6.5624 12.0164 6.93786 12.6422 7.18817 13.0803C7.50105 13.5183 7.75136 13.9563 8.06424 14.3318C8.37713 14.7073 8.56486 14.9576 8.62743 15.0827C8.75259 15.2079 8.81516 15.2704 8.87774 15.333L9.06548 15.5208C9.19063 15.6459 9.37836 15.8336 9.62867 16.0214C9.87898 16.2091 10.1919 16.3968 10.5047 16.5846C10.8176 16.7723 11.1931 16.8975 11.5686 17.0226C12.0066 17.1478 12.3821 17.2103 12.7575 17.1478H13.6962C13.8839 17.1478 14.0091 17.0852 14.1342 16.96L14.1968 16.8974C14.1968 16.8349 14.2594 16.8349 14.2594 16.7723C14.2594 16.7097 14.2594 16.6471 14.2594 16.522C14.2594 16.2717 14.2594 16.084 14.3219 15.8962C14.3845 15.7085 14.3845 15.5833 14.4471 15.4582C14.5097 15.333 14.5722 15.2704 14.6348 15.2079C14.6974 15.1453 14.76 15.0827 14.76 15.0827H14.8225C14.9477 15.0201 15.1354 15.0827 15.2606 15.2079C15.4483 15.333 15.6361 15.5208 15.7612 15.7085C15.8864 15.8962 16.0741 16.0839 16.3244 16.3343C16.5747 16.5846 16.7624 16.7723 16.8876 16.8349L17.0753 16.96C17.2005 17.0226 17.3256 17.0852 17.5134 17.1478C17.7011 17.2103 17.8262 17.2103 17.9514 17.2103L20.079 17.1478C20.2668 17.1478 20.4545 17.0852 20.5796 17.0226C20.7048 16.96 20.7674 16.8974 20.7674 16.7723C20.7674 16.7097 20.7674 16.5846 20.7674 16.522C20.6422 16.3968 20.6422 16.3343 20.6422 16.2717Z" fill="white"/>
</svg>
