<svg width="26" height="26" viewBox="0 0 26 26" fill="none" xmlns="http://www.w3.org/2000/svg">
<rect x="0.178711" y="0.537354" width="24.8731" height="24.8731" fill="#48C95F"/>
<path d="M18.2132 7.36726C16.7241 5.88335 14.7387 5.05896 12.6429 5.05896C8.28599 5.05896 4.75632 8.57637 4.75632 12.9182C4.75632 14.2922 5.14238 15.6662 5.80419 16.8203L4.70117 20.8873L8.89265 19.7881C10.0508 20.3927 11.3193 20.7224 12.6429 20.7224C16.9999 20.7224 20.5295 17.205 20.5295 12.8632C20.4744 10.8297 19.7023 8.85117 18.2132 7.36726ZM16.4484 15.7211C16.2829 16.1608 15.5108 16.6005 15.1247 16.6554C14.7938 16.7104 14.3526 16.7104 13.9114 16.6005C13.6356 16.4906 13.2496 16.3806 12.8084 16.1608C10.8229 15.3364 9.55447 13.3579 9.44417 13.193C9.33386 13.0831 8.6169 12.1487 8.6169 11.1595C8.6169 10.1702 9.11326 9.73052 9.27871 9.51068C9.44416 9.29085 9.66477 9.29085 9.83022 9.29085C9.94052 9.29085 10.106 9.29085 10.2163 9.29085C10.3266 9.29085 10.492 9.23589 10.6575 9.6206C10.8229 10.0053 11.209 10.9946 11.2641 11.0496C11.3193 11.1595 11.3193 11.2694 11.2641 11.3793C11.209 11.4892 11.1538 11.5991 11.0435 11.7091C10.9332 11.819 10.8229 11.9839 10.7678 12.0388C10.6575 12.1487 10.5472 12.2587 10.6575 12.4235C10.7678 12.6434 11.1538 13.2479 11.7605 13.7975C12.5326 14.457 13.1393 14.6769 13.3599 14.7868C13.5805 14.8967 13.6908 14.8418 13.8011 14.7318C13.9114 14.6219 14.2975 14.1823 14.4078 13.9624C14.5181 13.7426 14.6835 13.7975 14.849 13.8525C15.0144 13.9075 16.0071 14.4021 16.1726 14.512C16.3932 14.6219 16.5035 14.6769 16.5587 14.7318C16.6138 14.8967 16.6138 15.2814 16.4484 15.7211Z" fill="white"/>
</svg>
