<svg width="47" height="47" viewBox="0 0 47 47" fill="none" xmlns="http://www.w3.org/2000/svg">
<path d="M22.444 13.6759C17.6912 14.1511 13.8889 17.9534 13.4137 22.7062C13.0968 25.7691 14.153 28.7264 16.3181 30.8916C18.2193 32.7927 20.8069 33.8489 23.5002 33.8489C23.817 33.8489 24.1867 33.8489 24.5035 33.7961C29.2563 33.3208 33.0586 29.5186 33.5339 24.7657C33.8507 21.7028 32.7945 18.7455 30.6294 16.5804C28.517 14.4152 25.5069 13.359 22.444 13.6759ZM31.4743 24.5545C31.1047 28.3039 28.0946 31.3141 24.2923 31.7365C21.8631 32.0006 19.4867 31.1556 17.7968 29.4129C16.1069 27.7231 15.262 25.3466 15.4732 22.9174C15.8429 19.168 18.853 16.1579 22.6552 15.7354C22.9193 15.6826 23.1833 15.6826 23.4474 15.6826C25.5597 15.6826 27.6193 16.5275 29.1507 18.0062C30.8934 19.8017 31.7384 22.1781 31.4743 24.5545Z" fill="#00AFA8"/>
<path d="M44.9404 19.4337H43.409C42.7225 19.4337 42.1416 19.0112 41.9831 18.3775C41.5607 16.9517 40.9798 15.5258 40.1876 14.2056C39.8708 13.6247 39.9236 12.8854 40.4517 12.3573L41.6135 11.1955C42.4056 10.4034 42.4056 9.08315 41.6135 8.29101L38.7618 5.43933C37.9697 4.64719 36.6494 4.64719 35.8573 5.43933L34.6427 6.65393C34.1674 7.12921 33.4281 7.23483 32.8472 6.91798C31.5798 6.17865 30.1539 5.65056 28.7809 5.22809C28.1472 5.06966 27.6719 4.43596 27.6719 3.74944V2.05955C27.5663 0.950562 26.6685 0 25.5067 0H21.4933C20.3315 0 19.4337 0.950562 19.4337 2.05955V3.80225C19.4337 4.48876 18.9584 5.06966 18.3247 5.2809C16.8989 5.65056 15.5258 6.23146 14.2584 6.97079C13.6775 7.28764 12.9382 7.18202 12.4629 6.70674L11.2483 5.49213C10.4562 4.7 9.13595 4.7 8.34382 5.49213L5.49213 8.34382C4.7 9.13595 4.7 10.4562 5.49213 11.2483L6.65393 12.4101C7.12921 12.8854 7.23483 13.6247 6.91798 14.2584C6.17865 15.5787 5.54494 16.9517 5.12247 18.4303C4.96404 19.064 4.33034 19.4865 3.69663 19.4865H2.05955C0.897753 19.4865 0 20.4371 0 21.5461V25.5596C0 26.7213 0.950562 27.6191 2.05955 27.6191H3.48539C4.17191 27.6191 4.75281 28.0944 4.96404 28.7809C5.38652 30.2596 5.96742 31.6854 6.70674 33.0584C7.0236 33.6393 6.91798 34.3787 6.4427 34.8539L5.49213 35.8045C4.7 36.5966 4.7 37.9169 5.49213 38.709L8.34382 41.5607C9.13595 42.3528 10.4562 42.3528 11.2483 41.5607L12.1461 40.6629C12.6213 40.1876 13.4135 40.082 13.9944 40.4517C15.3674 41.2438 16.7933 41.8247 18.3247 42.2472C19.0112 42.4584 19.4337 43.0393 19.4337 43.7258V44.9404C19.4337 46.1022 20.3843 47 21.4933 47H25.5067C26.6685 47 27.5663 46.0494 27.5663 44.9404V43.7258C27.5663 43.0393 28.0416 42.4584 28.6753 42.2472C30.1539 41.8247 31.6326 41.191 33.0056 40.4517C33.6393 40.082 34.3787 40.1876 34.8539 40.6629L35.7517 41.5607C36.5438 42.3528 37.864 42.3528 38.6562 41.5607L41.5079 38.709C42.3 37.9169 42.3 36.5966 41.5079 35.8045L40.5573 34.8539C40.082 34.3787 39.9764 33.6393 40.2933 33.0584C41.0326 31.6854 41.6135 30.2596 42.036 28.7809C42.1944 28.0944 42.8281 27.6191 43.5146 27.6191H44.9404C46.1022 27.6191 47 26.6685 47 25.5596V21.5461C47 20.3315 46.0494 19.4337 44.9404 19.4337ZM44.8876 25.4539H43.5146C41.8775 25.4539 40.4517 26.5629 39.9764 28.2C39.6067 29.5202 39.0787 30.7876 38.4449 32.0022C37.6528 33.3753 37.9169 35.1708 39.0787 36.3326L39.9764 37.2303L37.2303 40.0292L36.3854 39.1843C35.2236 38.0225 33.4281 37.8112 32.0022 38.6034C30.7876 39.2899 29.5202 39.818 28.1472 40.1876C26.5629 40.6101 25.4539 42.0888 25.4539 43.673V44.8876H21.4933V43.7258C21.4933 42.0888 20.3843 40.6629 18.8 40.2404C17.4798 39.8708 16.1595 39.3427 14.9449 38.6562C13.5191 37.8112 11.6708 38.0753 10.5618 39.2371L9.76966 40.0292L6.97079 37.2303L7.86854 36.3326C9.03034 35.1708 9.24157 33.4281 8.50225 32.0022C7.81573 30.7876 7.34045 29.5202 6.97079 28.2C6.54832 26.6157 5.06966 25.4539 3.43258 25.4539H2.11236V21.4933H3.59101C5.17528 21.4933 6.60112 20.4371 7.0764 18.9056C7.44607 17.6382 7.97416 16.3708 8.66067 15.209C9.45281 13.7831 9.24157 11.9876 8.07977 10.8258L6.97079 9.71685L9.76966 6.91798L10.9315 8.07977C12.0405 9.24157 13.836 9.45281 15.2618 8.71348C16.4236 8.07977 17.6382 7.60449 18.9056 7.23483C20.4371 6.81236 21.5461 5.38652 21.5461 3.74944V2.11236H25.5067V3.80225C25.5067 5.43933 26.6157 6.86517 28.1472 7.28764C29.4146 7.6573 30.6292 8.13258 31.791 8.76629C33.2169 9.55843 34.9596 9.29438 36.1213 8.13258L37.2831 6.97079L40.082 9.76966L38.973 10.8787C37.8112 12.0404 37.6 13.836 38.3921 15.2618C39.0787 16.4236 39.6067 17.691 39.9764 18.9584C40.3989 20.4899 41.8775 21.5461 43.4618 21.5461H44.9404V25.4539H44.8876Z" fill="#00AFA8"/>
</svg>
