<svg width="23" height="13" viewBox="0 0 23 13" fill="none" xmlns="http://www.w3.org/2000/svg">
<path d="M21.7793 11.3434C21.7538 11.2931 21.7301 11.2513 21.7081 11.2179C21.3437 10.6155 20.6475 9.87599 19.6197 8.99929L19.598 8.97921L19.5871 8.96937L19.5762 8.95928H19.5651C19.0987 8.55105 18.8033 8.27656 18.6796 8.13603C18.4533 7.86833 18.4026 7.59735 18.5263 7.3228C18.6137 7.11536 18.9419 6.67727 19.5103 6.00795C19.8093 5.65323 20.0461 5.36893 20.2209 5.15474C21.4821 3.61547 22.0288 2.63186 21.8611 2.20352L21.7959 2.10342C21.7522 2.04316 21.6392 1.98803 21.4572 1.93775C21.2747 1.88758 21.0416 1.87928 20.7572 1.91272L17.6084 1.93269C17.5573 1.91609 17.4845 1.91764 17.3896 1.93775C17.2948 1.95786 17.2474 1.96795 17.2474 1.96795L17.1926 1.99309L17.1491 2.02329C17.1126 2.04326 17.0725 2.07839 17.0288 2.12859C16.9852 2.17862 16.9488 2.23734 16.9197 2.30425C16.5769 3.114 16.1871 3.86686 15.7497 4.5628C15.4799 4.97779 15.2322 5.33743 15.006 5.64194C14.7801 5.94635 14.5906 6.17063 14.4376 6.3144C14.2844 6.4583 14.1462 6.57359 14.022 6.66068C13.8981 6.7478 13.8034 6.78462 13.7379 6.77115C13.6722 6.75768 13.6104 6.74432 13.5518 6.73096C13.4499 6.6707 13.3678 6.58874 13.306 6.48502C13.2439 6.3813 13.202 6.25076 13.1802 6.09349C13.1584 5.93612 13.1456 5.80076 13.1419 5.68695C13.1385 5.57328 13.14 5.41249 13.1474 5.20506C13.155 4.99751 13.1584 4.85708 13.1584 4.78346C13.1584 4.52912 13.1638 4.25309 13.1747 3.95529C13.1857 3.65749 13.1946 3.42154 13.2021 3.24771C13.2095 3.07371 13.213 2.88961 13.213 2.69553C13.213 2.50146 13.2001 2.34925 13.1747 2.23878C13.1495 2.12845 13.111 2.02136 13.0602 1.91753C13.009 1.81381 12.9342 1.73358 12.836 1.67662C12.7376 1.61973 12.6153 1.57459 12.4697 1.54105C12.0834 1.46078 11.5914 1.41736 10.9935 1.41061C9.63783 1.39725 8.76671 1.47762 8.38038 1.65162C8.22731 1.72514 8.08879 1.82559 7.96494 1.95266C7.8337 2.09994 7.8154 2.18031 7.91014 2.19353C8.34756 2.25369 8.65722 2.3976 8.83947 2.62511L8.90515 2.74567C8.95624 2.83266 9.00725 2.98665 9.05829 3.20745C9.10927 3.42825 9.14216 3.6725 9.15664 3.94006C9.19302 4.42867 9.19302 4.84692 9.15664 5.19486C9.12014 5.54293 9.08568 5.81391 9.05278 6.00798C9.01988 6.20206 8.97071 6.35933 8.90515 6.47975C8.83947 6.60021 8.79578 6.67383 8.77387 6.70055C8.752 6.72727 8.73377 6.74411 8.7193 6.75072C8.62455 6.78405 8.52602 6.80103 8.42404 6.80103C8.3219 6.80103 8.19805 6.75413 8.0523 6.6604C7.90658 6.56666 7.75535 6.43791 7.5986 6.27393C7.44186 6.10991 7.26508 5.88071 7.0682 5.58629C6.87147 5.29186 6.66736 4.94389 6.45596 4.54238L6.28106 4.25119C6.17173 4.06386 6.02237 3.79109 5.83285 3.43314C5.6432 3.07504 5.47558 2.72865 5.32987 2.39404C5.27162 2.25351 5.18411 2.14652 5.0675 2.0729L5.01278 2.0427C4.97639 2.01598 4.91799 1.9876 4.83788 1.95737C4.75765 1.92717 4.67393 1.90551 4.58639 1.89218L1.59052 1.91215C1.28439 1.91215 1.07667 1.97583 0.967294 2.103L0.923521 2.16315C0.901654 2.19666 0.890625 2.25017 0.890625 2.32383C0.890625 2.39746 0.912492 2.48781 0.956264 2.5948C1.39361 3.53848 1.8692 4.44857 2.38306 5.32523C2.89692 6.20189 3.34345 6.90806 3.72239 7.44311C4.10141 7.97855 4.48774 8.48389 4.88138 8.95889C5.27503 9.43407 5.53559 9.73858 5.66308 9.87236C5.79072 10.0064 5.89098 10.1066 5.96386 10.1735L6.23725 10.4144C6.41219 10.575 6.66908 10.7674 7.00804 10.9915C7.34707 11.2158 7.72241 11.4366 8.13425 11.6543C8.54616 11.8716 9.02536 12.049 9.57211 12.1861C10.1188 12.3234 10.6509 12.3785 11.1684 12.3519H12.4259C12.6809 12.3317 12.8741 12.2581 13.0054 12.131L13.0489 12.0807C13.0782 12.0408 13.1055 11.9787 13.1308 11.8952C13.1564 11.8116 13.1691 11.7194 13.1691 11.6192C13.1616 11.3315 13.1855 11.0722 13.24 10.8413C13.2945 10.6105 13.3566 10.4365 13.4261 10.3193C13.4955 10.2023 13.5739 10.1035 13.6611 10.0234C13.7485 9.9431 13.8108 9.89448 13.8473 9.87774C13.8836 9.8609 13.9126 9.84947 13.9345 9.84262C14.1094 9.78911 14.3153 9.84093 14.5524 9.99834C14.7893 10.1556 15.0116 10.3498 15.2194 10.5806C15.4272 10.8116 15.6768 11.0707 15.9683 11.3584C16.26 11.6462 16.5151 11.8602 16.7337 12.0009L16.9523 12.1214C17.0982 12.2018 17.2878 12.2754 17.5211 12.3423C17.754 12.4092 17.958 12.4259 18.1332 12.3925L20.9321 12.3524C21.209 12.3524 21.4244 12.3103 21.5772 12.2268C21.7303 12.1432 21.8213 12.051 21.8506 11.9508C21.8799 11.8504 21.8814 11.7366 21.8561 11.6093C21.8302 11.4823 21.8047 11.3936 21.7793 11.3434Z" stroke="#00AFA8" stroke-width="1.12883"/>
</svg>
