<svg width="22" height="17" viewBox="0 0 22 17" fill="none" xmlns="http://www.w3.org/2000/svg">
<mask id="path-1-inside-1" fill="white">
<path fill-rule="evenodd" clip-rule="evenodd" d="M1.51066 1.82313C0.464468 2.89808 0.43829 4.50339 0.385936 7.71402C0.382628 7.91683 0.380859 8.1144 0.380859 8.30499C0.380859 8.49558 0.382628 8.69314 0.385936 8.89596C0.437286 12.045 0.462961 13.6195 1.49074 14.6906C2.51852 15.7618 4.2431 15.8613 7.69225 16.0602C9.02872 16.1373 10.3116 16.2005 11.6008 16.2005C12.4225 16.2005 13.2467 16.17 14.0891 16.1254C17.9536 15.921 19.8859 15.8188 20.9176 14.7596C20.9417 14.7348 20.9631 14.7123 20.9865 14.6869C21.9897 13.6007 21.9897 11.8355 21.9897 8.30499C21.9897 4.73825 21.9897 2.95488 20.9759 1.86629C20.9524 1.84101 20.9305 1.81816 20.9063 1.79351C19.8638 0.732311 17.9389 0.646665 14.0889 0.475375C13.2007 0.435859 12.3525 0.409439 11.6008 0.409439C10.6259 0.409439 9.19949 0.459619 7.69208 0.525103C4.2686 0.673826 2.55686 0.748187 1.51066 1.82313ZM8.38086 5.40944V11.0994L13.9171 8.17755L8.38086 5.40944Z"/>
</mask>
<path d="M0.385936 7.71402L1.51462 7.73242L0.385936 7.71402ZM1.51066 1.82313L0.701713 1.03582L0.701713 1.03582L1.51066 1.82313ZM0.385936 8.89596L1.51462 8.87755L0.385936 8.89596ZM1.49074 14.6906L0.676218 15.4721L1.49074 14.6906ZM7.69225 16.0602L7.75726 14.9333L7.69225 16.0602ZM14.0891 16.1254L14.1487 17.2527L14.0891 16.1254ZM20.9176 14.7596L20.1089 13.9719L20.9176 14.7596ZM20.9865 14.6869L20.1573 13.921L20.1572 13.921L20.9865 14.6869ZM20.9759 1.86629L21.802 1.09696L21.802 1.09694L20.9759 1.86629ZM20.9063 1.79351L21.7116 1.00246L21.7116 1.00245L20.9063 1.79351ZM14.0889 0.475375L14.0387 1.60309L14.0889 0.475375ZM7.69208 0.525103L7.64309 -0.602663L7.69208 0.525103ZM8.38086 11.0994H7.25203V12.9716L8.90775 12.0978L8.38086 11.0994ZM8.38086 5.40944L8.88569 4.39978L7.25203 3.58295V5.40944H8.38086ZM13.9171 8.17755L14.444 9.17587L16.3869 8.15041L14.4219 7.16789L13.9171 8.17755ZM1.51462 7.73242C1.54131 6.09529 1.56193 4.98207 1.69136 4.139C1.81477 3.33523 2.01863 2.91969 2.31961 2.61044L0.701713 1.03582C-0.0435026 1.80152 -0.375825 2.72611 -0.540147 3.79639C-0.698435 4.82738 -0.717085 6.12212 -0.742744 7.69561L1.51462 7.73242ZM1.50969 8.30499C1.50969 8.1213 1.51139 7.92992 1.51462 7.73242L-0.742744 7.69561C-0.746138 7.90374 -0.74797 8.10749 -0.74797 8.30499H1.50969ZM1.51462 8.87755C1.51139 8.68005 1.50969 8.48867 1.50969 8.30499H-0.74797C-0.74797 8.50248 -0.746138 8.70623 -0.742744 8.91436L1.51462 8.87755ZM2.30526 13.9091C2.00833 13.5996 1.80874 13.1887 1.68795 12.4013C1.56104 11.574 1.54081 10.4837 1.51462 8.87755L-0.742744 8.91436C-0.717585 10.4572 -0.699307 11.7287 -0.5436 12.7436C-0.381768 13.7986 -0.0546293 14.7105 0.676218 15.4721L2.30526 13.9091ZM7.75726 14.9333C6.00279 14.8321 4.79353 14.7602 3.88921 14.5926C3.0112 14.4298 2.58781 14.2035 2.30526 13.9091L0.676218 15.4721C1.42145 16.2488 2.37424 16.6079 3.47775 16.8124C4.55495 17.0121 5.93255 17.0894 7.62723 17.1872L7.75726 14.9333ZM11.6008 15.0717C10.346 15.0717 9.09047 15.0102 7.75726 14.9333L7.62723 17.1872C8.96697 17.2645 10.2771 17.3294 11.6008 17.3294V15.0717ZM14.0295 14.9981C13.1978 15.0421 12.3952 15.0717 11.6008 15.0717V17.3294C12.4497 17.3294 13.2955 17.2978 14.1487 17.2527L14.0295 14.9981ZM20.1089 13.9719C19.8431 14.2449 19.3895 14.4804 18.3791 14.6497C17.3623 14.8201 15.9893 14.8945 14.0295 14.9981L14.1487 17.2527C16.0534 17.1519 17.5789 17.0729 18.7522 16.8763C19.932 16.6786 20.9604 16.3334 21.7262 15.5472L20.1089 13.9719ZM20.1572 13.921C20.1406 13.939 20.1261 13.9543 20.1089 13.9719L21.7262 15.5472C21.7573 15.5153 21.7855 15.4855 21.8157 15.4528L20.1572 13.921ZM20.8609 8.30499C20.8609 10.0996 20.8589 11.3413 20.744 12.2746C20.6318 13.1856 20.4292 13.6266 20.1573 13.921L21.8157 15.4528C22.547 14.661 22.8461 13.6763 22.9847 12.5505C23.1206 11.447 23.1186 10.0409 23.1186 8.30499H20.8609ZM20.1498 2.63561C20.4241 2.93009 20.6291 3.37381 20.7427 4.29448C20.8589 5.237 20.8609 6.49218 20.8609 8.30499H23.1186C23.1186 6.55106 23.1206 5.13119 22.9833 4.01819C22.8434 2.88334 22.5415 1.89108 21.802 1.09696L20.1498 2.63561ZM20.101 2.58457C20.1182 2.60206 20.1331 2.61767 20.1499 2.63563L21.802 1.09694C21.7716 1.06434 21.7428 1.03426 21.7116 1.00246L20.101 2.58457ZM14.0387 1.60309C15.9916 1.68998 17.358 1.75256 18.3714 1.91528C19.3764 2.07665 19.8308 2.30949 20.101 2.58457L21.7116 1.00245C20.9394 0.216338 19.91 -0.124248 18.7294 -0.313825C17.5572 -0.502049 16.0361 -0.567937 14.139 -0.652339L14.0387 1.60309ZM11.6008 1.53827C12.3286 1.53827 13.158 1.56391 14.0387 1.60309L14.139 -0.652339C13.2433 -0.69219 12.3764 -0.71939 11.6008 -0.71939V1.53827ZM7.74107 1.65287C9.24929 1.58735 10.6533 1.53827 11.6008 1.53827V-0.71939C10.5985 -0.71939 9.14969 -0.668112 7.64309 -0.602663L7.74107 1.65287ZM2.31961 2.61044C2.61028 2.31179 3.03503 2.08989 3.90326 1.93893C4.80118 1.78281 5.99877 1.72856 7.74107 1.65287L7.64309 -0.602663C5.96191 -0.529629 4.59189 -0.472335 3.51652 -0.285359C2.41146 -0.0932216 1.45724 0.259532 0.701713 1.03582L2.31961 2.61044ZM9.50969 11.0994V5.40944H7.25203V11.0994H9.50969ZM13.3902 7.17923L7.85397 10.1011L8.90775 12.0978L14.444 9.17587L13.3902 7.17923ZM7.87603 6.4191L13.4122 9.1872L14.4219 7.16789L8.88569 4.39978L7.87603 6.4191Z" fill="#00AFA8" mask="url(#path-1-inside-1)"/>
</svg>
